<svg width="161" height="180" viewBox="0 0 161 180" fill="none" xmlns="http://www.w3.org/2000/svg">
<path d="M80.3888 179.938C77.9829 179.938 75.5846 179.309 73.4786 178.087L51.4739 165.069C48.1912 163.232 49.7951 162.58 50.8743 162.198C55.2588 160.677 56.1431 160.324 60.8274 157.671C61.3145 157.394 61.9591 157.499 62.4613 157.799L79.3695 167.834C79.6834 168.001 80.0334 168.088 80.3888 168.088C80.7442 168.088 81.0942 168.001 81.4081 167.834L147.325 129.791C147.632 129.606 147.886 129.344 148.062 129.031C148.238 128.719 148.33 128.366 148.329 128.007V51.935C148.328 51.5698 148.234 51.211 148.054 50.8933C147.874 50.5755 147.615 50.3096 147.302 50.1212L81.4156 12.1077C81.1051 11.9344 80.7555 11.8434 80.4 11.8434C80.0445 11.8434 79.6949 11.9344 79.3845 12.1077L13.5128 50.1287C13.1988 50.3151 12.9381 50.5792 12.7556 50.8955C12.5732 51.2119 12.4752 51.5698 12.4711 51.935V128.007C12.4725 128.367 12.5698 128.719 12.7529 129.029C12.936 129.339 13.1983 129.594 13.5128 129.768L31.5678 140.201C41.3634 145.103 47.3668 139.332 47.3668 133.531V58.4254C47.3668 57.3612 48.2212 56.5293 49.2854 56.5293H57.6421C58.6839 56.5293 59.5533 57.3687 59.5533 58.4254V133.531C59.5533 146.609 52.4332 154.104 40.0369 154.104C36.2295 154.104 33.2241 154.104 24.8524 149.974L7.55448 140.029C5.45188 138.804 3.70724 137.05 2.49469 134.94C1.28214 132.831 0.644109 130.44 0.644287 128.007V51.935C0.644287 46.9959 3.28994 42.3791 7.55448 39.9208L73.4711 1.83235C75.5944 0.670568 77.9759 0.0616455 80.3963 0.0616455C82.8166 0.0616455 85.1981 0.670568 87.3215 1.83235L153.231 39.9208C157.503 42.3866 160.156 46.9959 160.156 51.935V128.007C160.151 130.441 159.51 132.831 158.295 134.94C157.08 137.05 155.334 138.804 153.231 140.029L87.3215 178.087C85.2229 179.309 82.8321 179.938 80.3888 179.938ZM133.609 104.938C133.609 90.698 123.986 86.9056 103.728 84.23C83.2593 81.5244 81.1757 80.1228 81.1757 75.3337C81.1757 71.3764 82.937 66.0926 98.0989 66.0926C111.642 66.0926 116.634 69.0081 118.687 78.1367C118.781 78.5585 119.015 78.9359 119.351 79.2069C119.688 79.478 120.106 79.6265 120.538 79.6282H129.09C129.351 79.6256 129.609 79.5705 129.849 79.4662C130.088 79.3619 130.304 79.2106 130.484 79.0211C130.665 78.8245 130.803 78.5924 130.89 78.3395C130.976 78.0866 131.009 77.8184 130.986 77.5521C129.659 61.8281 119.212 54.4982 98.0989 54.4982C79.302 54.4982 68.0898 62.4277 68.0898 75.7309C68.0898 90.1584 79.2421 94.1456 97.282 95.9293C118.867 98.0429 120.538 101.198 120.538 105.44C120.538 112.808 114.625 115.948 100.737 115.948C83.2968 115.948 79.4594 111.571 78.1703 102.892C78.0987 102.441 77.8682 102.031 77.5204 101.735C77.1726 101.44 76.7305 101.279 76.2741 101.281H67.7526C67.5027 101.279 67.2548 101.326 67.0235 101.421C66.7921 101.515 66.5818 101.655 66.4047 101.831C66.2276 102.007 66.0873 102.217 65.9919 102.448C65.8965 102.679 65.8479 102.927 65.8489 103.177C65.8489 114.284 71.8897 127.52 100.737 127.52C121.633 127.527 133.609 119.306 133.609 104.938Z" fill="#687759"/>
</svg>
