<svg width="142" height="182" viewBox="0 0 142 182" fill="none" xmlns="http://www.w3.org/2000/svg">
<path d="M64.49 0H94.4024V137.757C79.0574 140.654 67.7908 141.814 55.5559 141.814C19.0345 141.814 0 125.388 0 93.8856C0 63.5434 20.2008 43.8335 51.4777 43.8335C56.3335 43.8335 60.023 44.2203 64.49 45.3806V0ZM64.49 69.3373C61.2384 68.2446 57.821 67.7211 54.3896 67.7902C39.2352 67.7902 30.4994 77.065 30.4994 93.3016C30.4994 109.151 38.8541 117.842 54.1991 117.842C57.4998 117.842 60.2212 117.653 64.49 117.069V69.3373ZM142 45.9569V114.945C142 138.713 140.254 150.118 135.01 159.969C130.154 169.441 123.743 175.433 110.533 182L82.7546 168.858C95.9651 162.677 102.376 157.262 106.454 148.95C110.731 140.449 112.088 130.59 112.088 104.7V45.9493L142 45.9569ZM112.088 0.159257H142V30.691H112.088V0.159257Z" fill="#687759"/>
</svg>
