<svg width="196" height="174" viewBox="0 0 196 174" fill="none" xmlns="http://www.w3.org/2000/svg">
<path d="M97.6001 69.6216C95.3184 69.6216 93.0591 70.071 90.9511 70.9441C88.8431 71.8173 86.9278 73.0971 85.3144 74.7104C83.701 76.3238 82.4213 78.2392 81.5481 80.3471C80.6749 82.4551 80.2255 84.7144 80.2255 86.9961C80.2255 89.2777 80.6749 91.537 81.5481 93.645C82.4213 95.753 83.701 97.6683 85.3144 99.2817C86.9278 100.895 88.8431 102.175 90.9511 103.048C93.0591 103.921 95.3184 104.371 97.6001 104.371C99.8817 104.371 102.141 103.921 104.249 103.048C106.357 102.175 108.272 100.895 109.886 99.2817C111.499 97.6683 112.779 95.753 113.652 93.645C114.525 91.537 114.975 89.2777 114.975 86.9961C114.975 84.7144 114.525 82.4551 113.652 80.3471C112.779 78.2392 111.499 76.3238 109.886 74.7104C108.272 73.0971 106.357 71.8173 104.249 70.9441C102.141 70.071 99.8817 69.6216 97.6001 69.6216ZM48.9287 121.558L45.0947 120.584C16.519 113.362 0.127319 101.105 0.127319 86.9636C0.127319 72.8219 16.519 60.5647 45.0947 53.3436L48.9287 52.377L50.009 56.1784C52.9038 66.1508 56.6065 75.8707 61.0803 85.2416L61.9007 86.9717L61.0803 88.7019C56.599 98.0695 52.8961 107.79 50.009 117.765L48.9287 121.558ZM43.3159 62.2218C21.5957 68.3219 8.26629 77.6549 8.26629 86.9636C8.26629 96.2641 21.5957 105.597 43.3159 111.705C45.9722 103.257 49.1794 94.9922 52.9169 86.9636C49.1751 78.9368 45.9678 70.6715 43.3159 62.2218ZM146.271 121.558L145.191 117.749C142.299 107.777 138.594 98.0592 134.112 88.6937L133.291 86.9636L134.112 85.2334C138.592 75.8644 142.297 66.1442 145.191 56.1703L146.271 52.3689L150.113 53.3355C178.681 60.5566 195.073 72.8138 195.073 86.9636C195.073 101.113 178.681 113.362 150.113 120.584L146.271 121.558ZM142.283 86.9636C146.182 95.4031 149.407 103.696 151.884 111.705C173.613 105.597 186.934 96.2641 186.934 86.9636C186.934 77.6549 173.604 68.33 151.884 62.2218C149.232 70.6712 146.024 78.9364 142.283 86.9636ZM43.259 62.1811L42.1787 58.3878C34.1453 30.072 36.5821 9.78142 48.8637 2.6984C60.9097 -4.25465 80.2499 3.95743 100.516 24.7597L103.278 27.5946L100.516 30.4294C93.315 37.9154 86.7355 45.9754 80.8429 54.5295L79.7463 56.0972L77.8375 56.2597C67.4721 57.0768 57.1902 58.7339 47.0929 61.2145L43.259 62.1811ZM58.6597 8.32746C56.4828 8.32746 54.5577 8.79857 52.9332 9.73269C44.8592 14.387 43.4296 30.5675 48.9937 52.4014C57.6495 50.4757 66.4217 49.1164 75.2544 48.3319C80.3508 41.0855 85.9188 34.1825 91.9223 27.6677C79.2508 15.3292 67.2535 8.32746 58.6597 8.32746ZM136.549 173.722C136.54 173.722 136.54 173.722 136.549 173.722C124.974 173.722 110.109 165.007 94.684 149.167L91.9223 146.333L94.684 143.498C101.883 136.009 108.46 127.947 114.349 119.39L115.446 117.822L117.346 117.659C127.717 116.847 138.005 115.192 148.107 112.713L151.941 111.746L153.03 115.547C161.047 143.847 158.618 164.146 146.336 171.221C143.353 172.907 139.975 173.771 136.549 173.722ZM103.278 146.259C115.949 158.598 127.947 165.6 136.54 165.6C138.709 165.6 140.651 165.129 142.267 164.194C150.341 159.54 151.779 143.352 146.206 121.518C137.548 123.446 128.773 124.805 119.938 125.587C114.847 132.839 109.282 139.745 103.278 146.259ZM151.941 62.1811L148.107 61.2145C138.006 58.7267 127.718 57.0696 117.346 56.2597L115.446 56.0972L114.349 54.5295C108.463 45.9727 101.886 37.9124 94.684 30.4294L91.9223 27.5946L94.684 24.7597C114.942 3.96555 134.274 -4.24653 146.336 2.6984C158.618 9.78142 161.055 30.072 153.03 58.3797L151.941 62.1811ZM119.938 48.3319C129.214 49.1767 138.027 50.5494 146.206 52.4014C151.779 30.5675 150.341 14.387 142.267 9.73269C134.242 5.09461 119.158 12.202 103.278 27.6677C109.278 34.1827 114.844 41.0857 119.938 48.3319ZM58.6597 173.722C55.2302 173.772 51.8493 172.909 48.8637 171.221C36.5821 164.146 34.1453 143.855 42.1787 115.547L43.2509 111.746L47.0848 112.713C56.4666 115.076 66.8149 116.742 77.8293 117.659L79.7382 117.822L80.8266 119.39C86.7201 127.946 93.2996 136.008 100.5 143.498L103.262 146.333L100.5 149.167C85.0829 165.007 70.2183 173.722 58.6597 173.722ZM48.9937 121.518C43.4215 143.352 44.8592 159.54 52.9332 164.194C60.9503 168.768 76.0261 161.717 91.9223 146.259C85.9212 139.74 80.3534 132.834 75.2544 125.587C66.4213 124.806 57.6489 123.447 48.9937 121.518ZM97.6001 126.619C90.9151 126.619 84.0432 126.326 77.1633 125.758L75.2544 125.595L74.1579 124.028C70.2663 118.436 66.608 112.686 63.1922 106.791C59.7865 100.892 56.6268 94.8544 53.7211 88.6937L52.9169 86.9636L53.7211 85.2334C56.6263 79.0725 59.7861 73.0348 63.1922 67.136C66.555 61.3201 70.2508 55.5205 74.1579 49.8996L75.2544 48.3319L77.1633 48.1694C90.7661 47.016 104.442 47.016 118.045 48.1694L119.946 48.3319L121.034 49.8996C128.825 61.0851 135.664 72.9045 141.479 85.2334L142.299 86.9636L141.479 88.6937C135.678 101.03 128.838 112.851 121.034 124.028L119.946 125.595L118.045 125.758C111.165 126.326 104.285 126.619 97.6001 126.619ZM79.7544 117.814C91.7761 118.715 103.424 118.715 115.454 117.814C122.17 107.995 128.133 97.6825 133.291 86.9636C128.142 76.2382 122.176 65.9244 115.446 56.1135C103.566 55.2118 91.6344 55.2118 79.7544 56.1135C73.0213 65.9226 67.0551 76.2366 61.9088 86.9636C67.0729 97.6812 73.0384 107.994 79.7544 117.814Z" fill="#687759"/>
</svg>
