<svg width="160" height="160" viewBox="0 0 160 160" fill="none" xmlns="http://www.w3.org/2000/svg">
<path d="M94.6798 1.8315L100.632 3.15415L105.459 4.87359L109.361 6.85756L112.337 8.9738L114.586 11.2223L116.239 13.4708L117.297 15.6532L117.958 17.6372L118.223 19.3566L118.355 20.6792L118.289 21.539V56.8537L117.958 61.02L117.099 64.6573L115.71 67.6994L113.991 70.2124L112.007 72.2626L109.824 73.9159L107.51 75.1724L105.195 76.0982L103.013 76.7596L101.029 77.2225L99.3091 77.487L97.9203 77.6193H58.4393L53.8761 77.9499L49.9743 78.8758L46.6677 80.3307L43.9563 82.1163L41.7739 84.2325L39.9883 86.5472L38.6657 88.9279L37.6737 91.3748L37.0123 93.6895L36.5494 95.8057L36.2849 97.5913L36.1526 98.9801V119.217H21.4051L20.0163 119.018L18.1646 118.555L16.0484 117.762L13.7337 116.571L11.353 114.852L8.97219 112.471L6.65756 109.429L4.54132 105.527L2.68961 100.7L1.30083 94.8798L0.374974 87.9359L0.0443115 79.8017L0.441106 71.7335L1.49923 64.8557L3.0864 59.1022L5.20264 54.4068L7.58341 50.6372L10.2287 47.7274L13.0063 45.545L15.7838 43.9579L18.4291 42.8997L20.8099 42.2384L22.9261 41.9078L24.5133 41.8416H25.5714L25.9682 41.9078H79.9323V36.4188H41.311L41.2448 18.2323L41.1126 15.7854L41.4432 13.5369L42.1707 11.4868L43.2949 9.63513L44.9482 7.91568L46.9983 6.39464L49.5114 5.07199L52.4212 3.8816L55.794 2.88962L59.6296 2.09603L63.8621 1.4347L68.5575 1.03791L73.6497 0.773378L79.2049 0.641113L87.6037 0.971776L94.6798 1.8315ZM53.0164 14.9257L51.4954 17.1081L50.9663 19.8195L51.4954 22.531L53.0164 24.7795L55.1988 26.2344L57.9102 26.8296L60.6216 26.2344L62.804 24.7795L64.3251 22.531L64.8541 19.8195L64.3251 17.1081L62.804 14.9257L60.6216 13.4708L57.9102 12.8756L55.1988 13.4708L53.0164 14.9257ZM139.584 41.048L141.435 41.4448L143.552 42.2384L145.866 43.4288L148.247 45.2144L150.628 47.529L152.943 50.6372L155.059 54.5391L156.91 59.3667L158.299 65.1864L159.225 72.0642L159.556 80.1984L159.159 88.3327L158.101 95.2105L156.514 100.898L154.397 105.593L152.017 109.363L149.371 112.339L146.594 114.521L143.816 116.108L141.171 117.166L138.79 117.762L136.674 118.092L135.087 118.225L134.029 118.158H79.6678V123.581H118.289L118.355 141.834L118.488 144.215L118.157 146.463L117.429 148.513L116.305 150.431L114.652 152.084L112.602 153.672L110.089 154.994L107.179 156.118L103.806 157.11L99.9704 157.97L95.738 158.565L91.0426 159.028L85.9504 159.293L80.3952 159.359L71.9964 159.094L64.9202 158.169L58.9683 156.846L54.1407 155.193L50.2388 153.209L47.2629 151.026L45.0144 148.778L43.3611 146.529L42.3029 144.347L41.6416 142.363L41.3771 140.71L41.2448 139.387L41.311 138.527V103.213L41.6416 98.9801L42.5013 95.4089L43.8901 92.3668L45.6096 89.8538L47.5935 87.7375L49.7759 86.1504L52.0905 84.8277L54.4052 83.9019L56.5876 83.2405L58.5715 82.8437L60.291 82.5792L61.6797 82.4469L62.5395 82.3808H101.161L105.724 82.0502L109.626 81.1243L112.932 79.7355L115.644 77.8838L117.826 75.7676L119.612 73.4529L120.934 71.0722L121.926 68.6914L122.588 66.3768L123.051 64.2605L123.315 62.4088L123.447 61.02V40.7835H137.269L138.195 40.8496L139.584 41.048ZM96.7961 135.287L95.275 137.469L94.746 140.181L95.275 142.892L96.7961 145.074L98.9784 146.595L101.69 147.124L104.401 146.595L106.584 145.074L108.105 142.892L108.634 140.181L108.105 137.469L106.584 135.287L104.401 133.766L101.69 133.237L98.9784 133.766L96.7961 135.287Z" fill="#687759"/>
</svg>
