<svg width="160" height="194" viewBox="0 0 160 194" fill="none" xmlns="http://www.w3.org/2000/svg">
<path d="M84.2628 0.184937C83.0123 0.184937 81.7215 0.249475 80.3985 0.354351C46.2978 3.04078 55.3413 39.1341 54.825 51.1625C54.2038 59.9801 52.4048 66.9261 46.3462 75.534C39.2066 84.0127 29.187 97.7192 24.4353 112.006C22.1926 118.718 21.1277 125.592 22.12 132.086C21.7491 132.383 21.4441 132.754 21.2245 133.175C19.127 135.337 17.6023 138.024 15.8839 139.944C14.2785 141.549 11.9712 142.098 9.45423 143.171C6.92915 144.268 4.14592 145.341 2.48404 148.664C1.75798 150.181 1.38688 151.835 1.41915 153.513C1.41915 155.118 1.63697 156.748 1.86286 157.837C2.33076 161.056 2.79867 163.718 2.17748 165.662C0.176783 171.148 -0.0733051 174.908 1.33041 177.642C2.73413 180.337 5.64644 181.426 8.90565 182.491C15.4483 184.104 24.3143 183.58 31.2925 187.323C38.7629 191.091 46.3462 192.736 52.3967 191.115C56.6402 190.187 60.222 187.38 62.1421 183.491C66.8776 183.467 72.0649 181.321 80.3743 180.797C86.0134 180.329 93.0723 182.951 101.172 182.402C101.374 183.491 101.68 184.007 102.092 185.097L102.116 185.121C105.27 191.397 111.095 194.253 117.315 193.761C123.535 193.277 130.158 189.437 135.523 183.225C140.613 177.053 149.1 174.48 154.707 171.1C157.514 169.494 159.781 167.316 159.943 164.218C160.128 160.991 158.337 157.668 154.182 153.11V152.327L154.158 152.303C152.787 150.689 152.141 147.987 151.431 144.832C150.746 141.597 149.963 138.492 147.462 136.394H147.438C146.962 135.958 146.446 135.854 145.921 135.305C145.47 134.99 144.938 134.811 144.389 134.789C147.866 124.479 146.518 114.217 142.993 104.988C138.693 93.6129 131.174 83.7062 125.447 76.8893C119.025 68.7816 112.732 61.1015 112.853 49.7104C113.071 32.3494 114.765 0.233341 84.2628 0.184937ZM88.5304 27.6543H88.6353C90.3536 27.6543 91.8299 28.1544 93.3466 29.2516C94.8874 30.3407 96.0088 31.9299 96.8881 33.5515C97.7352 35.6409 98.1628 37.2544 98.2273 39.3922C98.2273 39.2309 98.2757 39.0695 98.2757 38.9163V39.7553C98.258 39.7004 98.2471 39.6434 98.2435 39.5859L98.2112 39.3922C98.1949 41.3528 97.7834 43.29 97.0011 45.0878C96.6244 46.0993 96.0389 47.0201 95.2827 47.7903C95.0542 47.6613 94.8169 47.5481 94.5728 47.4515C93.7257 47.0885 92.9674 46.9352 92.2736 46.3786C91.7013 46.15 91.1102 45.9718 90.5069 45.8461C90.9022 45.3701 91.6766 44.7732 91.9751 44.2488C92.4027 43.2162 92.6367 42.119 92.6851 41.0057V40.8524C92.7033 39.7568 92.5369 38.6659 92.193 37.6255C91.8299 36.5364 91.3782 36.004 90.7166 34.931C90.039 34.3986 89.3694 33.8661 88.5626 33.8661H88.4336C87.6833 33.8661 87.0137 34.1081 86.3199 34.931C85.5538 35.6782 84.9855 36.6041 84.6661 37.6255C84.2377 38.6505 83.9919 39.7427 83.9401 40.8524V41.0057C83.9562 41.7237 84.0046 42.4498 84.1014 43.1597C82.5444 42.6192 80.5679 42.0706 79.2045 41.5301C79.1234 40.9984 79.0749 40.4623 79.0593 39.9247V39.7633C78.9947 37.631 79.4082 35.5113 80.2694 33.5595C80.9309 31.7928 82.141 30.2842 83.7384 29.2597C85.1184 28.2173 86.8009 27.6536 88.5304 27.6543ZM64.6349 28.1302H64.9253C66.0709 28.1302 67.1035 28.5175 68.1442 29.2193C69.322 30.26 70.274 31.5427 70.9194 32.9706C71.6454 34.576 72.0569 36.2056 72.1537 38.3516V38.3838C72.2101 39.4648 72.2021 40.0054 72.1375 40.5297V41.1751C71.8955 41.2316 71.6858 41.3203 71.4679 41.3687C70.2417 41.8124 69.2575 42.4578 68.2975 42.9822C68.3943 42.2642 68.4023 41.5382 68.3217 40.8282V40.7072C68.2249 39.6343 68.007 39.1018 67.6601 38.0208C67.4086 37.1986 66.947 36.4562 66.321 35.8668C66.1222 35.686 65.889 35.5471 65.6353 35.4584C65.3817 35.3697 65.1128 35.333 64.8446 35.3505H64.6752C64.1024 35.3989 63.6265 35.6813 63.1747 36.4154C62.6601 37.04 62.3254 37.793 62.2066 38.5936C61.9876 39.4657 61.9248 40.3698 62.0211 41.2639V41.3768C62.1179 42.4659 62.3196 42.9983 62.6745 44.0713C63.0376 45.1523 63.4571 45.6848 64.0056 46.2334C64.0944 46.306 64.175 46.3786 64.2799 46.427C63.7152 46.8868 63.336 46.9917 62.8601 47.5241C62.558 47.7908 62.1951 47.9791 61.8032 48.0727C60.9647 47.0629 60.222 45.9772 59.5847 44.8296C58.822 43.1344 58.3973 41.3066 58.3343 39.4487C58.2007 37.6276 58.4198 35.7978 58.9797 34.0597C59.424 32.4746 60.2025 31.003 61.2627 29.7437C62.2954 28.6707 63.3602 28.1302 64.6349 28.1302ZM75.6952 41.8931C78.3655 41.8931 81.6005 42.4175 85.4971 45.112C87.8608 46.7255 89.7163 47.2821 93.992 48.8875H94.0162C96.0733 49.9847 97.2834 51.0334 97.8724 52.1064V51.0496C98.1619 51.6362 98.3231 52.2777 98.3454 52.9315C98.3676 53.5853 98.2504 54.2363 98.0014 54.8412C97.0092 57.3502 93.8387 60.0366 89.4178 61.642V61.6581C87.2557 62.7472 85.376 64.3445 83.1656 65.4094C80.939 66.4985 78.422 67.7651 75.0014 67.5634C73.7727 67.627 72.5436 67.4432 71.3873 67.0229C70.4937 66.5368 69.6266 66.0036 68.7896 65.4256C67.2164 64.3365 65.8611 62.7472 63.8524 61.6743V61.6339H63.812C60.5851 59.6493 58.8425 57.5034 58.2778 55.898C57.7212 53.736 58.2375 52.1144 59.8348 51.0576C61.6419 49.9685 62.9004 48.8714 63.7313 48.347C64.5704 47.75 64.885 47.5241 65.1512 47.2902H65.1673V47.266C66.5307 45.6364 68.6847 43.4824 71.9358 42.4175C73.0572 42.1271 74.3076 41.8931 75.6952 41.8931ZM98.2757 59.1814C101.172 70.6129 107.932 87.2155 112.281 95.2667C114.588 99.5746 119.178 108.65 121.171 119.662C122.429 119.622 123.825 119.808 125.309 120.179C130.521 106.698 120.905 92.2092 116.524 88.1836C114.741 86.562 114.652 85.481 115.532 85.481C120.283 89.789 126.544 98.1629 128.811 107.723C129.851 112.039 130.093 116.629 128.98 121.195C129.521 121.421 130.069 121.687 130.634 121.736C138.959 126.044 142.033 129.303 140.557 134.135V133.788C140.065 133.764 139.589 133.788 139.097 133.788H138.975C140.194 130.021 137.507 127.133 130.384 123.914C123.002 120.687 117.105 121.203 116.096 127.665C116.04 128.012 116 128.198 115.959 128.754C115.411 128.94 114.838 129.182 114.273 129.271C110.804 131.433 108.933 134.668 107.876 138.846C106.827 143.146 106.504 148.172 106.222 153.924V153.949C106.053 156.643 104.843 160.709 103.649 164.848C91.5476 173.496 74.7675 177.255 60.4963 167.542C59.6013 165.978 58.5116 164.533 57.2533 163.242C56.6527 162.238 55.9048 161.33 55.0347 160.548C56.503 160.548 57.7615 160.314 58.7861 160.007C59.9461 159.469 60.8536 158.504 61.3192 157.313C62.1905 155.159 61.3192 151.69 58.536 147.93C55.7527 144.163 51.0253 139.903 44.1116 135.66C39.0291 132.441 36.1572 128.641 34.8341 124.398C33.503 120.09 33.6805 115.645 34.7131 111.127C36.6896 102.495 41.7559 94.105 44.9909 88.837C45.8541 88.3126 45.2894 89.9261 41.6994 96.6946C38.5048 102.753 32.4946 116.839 40.7152 127.786C41.0256 119.799 42.7946 111.935 45.9348 104.584C50.4848 94.2744 59.9962 76.3165 60.7464 62.0857C61.1337 62.3761 62.497 63.1748 63.0779 63.7153C64.8366 64.7882 66.1435 66.4017 67.8376 67.4666C69.5398 69.0881 71.6858 70.1692 74.9046 70.1692C75.2193 70.1934 75.5097 70.2176 75.8001 70.2176C79.1158 70.2176 81.6812 69.1365 83.8352 68.0555C86.1747 66.9745 88.0383 65.361 89.805 64.8286H89.8454C93.6128 63.7395 96.5897 61.5855 98.2757 59.1814ZM115.911 131.449C116.209 136.297 118.678 141.493 123.026 142.557C127.77 143.638 134.595 139.871 137.475 136.386L139.177 136.313C141.718 136.249 143.832 136.394 146.01 138.467L146.034 138.492C147.712 140.097 148.495 142.775 149.189 145.559C149.874 148.794 150.431 151.851 152.488 154.158C156.409 158.41 157.692 161.467 157.619 163.355L157.643 163.307V163.452L157.619 163.355C157.498 165.469 156.127 166.55 153.602 168.155C148.519 171.39 139.516 173.899 133.78 180.821C128.795 186.767 122.72 190.01 117.355 190.429C111.998 190.857 107.376 188.816 104.657 183.185L104.617 183.16C102.923 179.925 103.649 174.891 105.068 169.527C106.488 164.138 108.521 158.676 108.804 154.215C109.102 148.455 109.417 143.445 110.377 139.581C111.345 135.829 112.861 133.151 115.548 131.642L115.911 131.465V131.449ZM28.6626 131.844H28.7433C29.1708 131.844 29.5903 131.884 30.0098 131.957C33.0432 132.401 35.7054 134.643 38.2627 138.024L45.604 151.448L45.6282 151.472C47.5886 155.772 51.711 160.056 55.2203 164.686C58.7215 169.51 61.4322 173.81 61.1014 177.352V177.4C60.6416 183.402 57.2371 186.662 52.0256 187.839C46.8222 188.929 39.7633 187.856 32.7043 184.096C24.8951 179.772 15.6177 180.313 9.65592 179.24C6.67907 178.707 4.72677 177.618 3.82322 176.005C2.92775 174.399 2.91161 171.156 4.81551 166.082V166.058L4.83164 166.033C5.77552 163.339 5.07366 159.959 4.61382 157.006C4.17012 153.771 3.94423 151.286 4.96072 149.423C6.2515 146.728 8.15539 146.204 10.5191 145.123C12.899 144.034 15.6903 143.493 17.9088 141.339H17.9249V141.315C19.9902 139.153 21.5149 136.467 23.3139 134.555C24.8467 132.933 26.3795 131.844 28.6626 131.844ZM86.4167 58.6409C82.9074 60.2625 78.7931 62.957 74.4125 62.957C70.04 62.957 66.5872 60.803 64.0944 59.1976C62.8439 58.1166 61.8355 57.0355 61.0772 56.495C59.7541 55.414 59.9155 53.8005 60.4802 53.8005C61.3595 53.9296 61.5209 54.8896 62.0856 55.4221C62.8601 55.9545 63.8201 57.0275 64.9979 58.1085C67.3455 59.722 70.4837 61.8759 74.4045 61.8759C78.3171 61.8759 82.8994 59.722 85.6826 58.1166C87.2557 57.0275 89.2726 55.4221 90.9102 54.3491C92.1687 53.2439 92.1123 52.1871 93.161 52.1871C94.2017 52.3161 93.4353 53.2681 91.9751 54.8735C90.1857 56.2267 88.3278 57.4869 86.4087 58.649V58.6409H86.4167ZM77.6879 45.8623V45.6848C77.6395 45.5315 77.7927 45.3459 77.9218 45.2814C78.5188 44.9345 79.3739 45.0636 80.0193 45.3137C80.5276 45.3137 81.3101 45.8542 81.2294 46.4028C81.181 46.7981 80.5437 46.9352 80.1403 46.9352C79.6966 46.9352 79.3981 46.5883 79.0028 46.3866C78.5833 46.2414 77.825 46.3221 77.6879 45.8623ZM73.2428 45.8623C73.0814 46.3302 72.3311 46.2576 71.9036 46.3947C71.5244 46.5964 71.2098 46.9433 70.7822 46.9433C70.3708 46.9433 69.7254 46.79 69.677 46.3947C69.6044 45.8623 70.3869 45.3217 70.8871 45.3217C71.5405 45.0717 72.3715 44.9426 72.9765 45.2814C73.1298 45.354 73.267 45.5234 73.2185 45.6848V45.8542H73.2428V45.8623Z" fill="#687759"/>
</svg>
