<svg width="42" height="51" viewBox="0 0 42 51" fill="none" xmlns="http://www.w3.org/2000/svg">
<path d="M28.4167 0.5C25.0771 0.80625 20.6687 1.98542 15.2562 4.08125C13.6326 5.25828 11.9346 6.32925 10.1729 7.2875L10.1937 7.61667C10.3271 7.61667 10.4771 7.52708 10.6937 7.41667C10.9146 7.39583 11.0458 7.48333 11.0458 7.70208L11.3958 7.50625L11.5708 7.48333L11.5917 7.6375C11.6125 7.78958 10.4125 8.72708 8.03542 10.4083L8.22917 10.7125L8.05417 10.7375L7.68542 10.6042C7.68542 10.7125 7.53333 10.7812 7.18542 10.8021L7.20625 10.9771L7.6 11.4146C7.41952 11.4119 7.24126 11.3744 7.075 11.3042C6.31042 11.3687 5.54583 11.9354 4.80417 12.9833L5 13.2896C5.65417 12.7 6.025 12.3937 6.13333 12.3937L6.17917 12.8729C6.07083 12.8729 5.89583 12.9604 5.67917 13.0687L6.09375 13.6833C6.85412 12.8466 7.72705 12.1195 8.6875 11.5229C9.16667 11.6542 9.40833 11.7833 9.40833 11.9583L9.75833 11.9375C12.3104 10.0396 14.8417 8.68333 17.35 7.83333L17.375 8.1625C16.9167 8.86042 16.5896 9.20625 16.4146 9.22708C16.4354 9.46875 16.5229 9.66458 16.6542 9.8625C16.6979 10.3 15.5625 13.1604 13.2479 18.4854C7.96667 30.8396 3.55833 39.9583 0 45.8937C0 46.0021 0.0854169 46.1771 0.195834 46.3729C1.06875 46.1562 1.63542 45.9625 1.875 45.7437L2.075 45.7187L2.09583 46.0479L2.425 46.025L2.77083 45.8292C2.77083 45.9375 2.90208 45.9812 3.12083 45.9583L3.14583 46.2896C3.16667 46.6167 2.98958 47.1167 2.575 47.7937C2.20417 48.2104 1.83542 49.0583 1.42083 50.3458L1.44167 50.5L1.77083 50.4792C3.1875 48.8875 4.27917 47.3125 5.02083 45.7833C9.18958 44.5625 12.3542 43.3625 14.5583 42.1833C16.7625 41.9875 18.4667 41.4229 19.6 40.4625L19.5771 40.2875L18.7458 40.5271L18.55 40.5479L18.5292 40.3729C20.1458 40.1312 21.2792 39.7625 21.8917 39.2812C25.0562 36.8375 27.4333 35.1146 29.0479 34.0896C34.0479 30.4229 36.4042 26.8875 36.1208 23.5271C36.1 23.1771 34.9854 21.8021 32.825 19.4021C32.7812 18.9437 33.5437 18.2875 35.0708 17.4146L39.4167 13.5937C40.375 12.35 40.9667 10.3437 41.1625 7.57292L41.0979 6.91667C40.9229 4.975 39.5229 3.40208 36.8604 2.2C35.2917 1.13125 32.475 0.564583 28.4167 0.5ZM33.6771 2.66042C36.9063 2.79167 38.5667 3.35833 38.6542 4.3625L38.5229 4.69167L33.6771 2.66042ZM30.5896 5.40417C32.8042 5.37083 33.9583 5.96042 34.0729 7.20208L34.3979 7.17708L34.3333 6.34792L34.6833 6.32708C35.5333 6.78542 35.9896 7.35208 36.0333 8.02708C36.0771 8.48542 35.8375 9.05625 35.2938 9.73333C35.075 9.75417 34.9437 9.6 34.9229 9.27292L34.5729 9.29792L34.4875 10.2771C33.025 12.4604 31.9771 13.5729 31.3208 13.6396C30.7312 14.4458 30.3583 14.8625 30.2062 14.8833C29.7479 15.4292 28.5062 16.3667 26.4562 17.675C25.7792 17.7417 23.2667 18.7021 18.9229 20.6C18.7063 20.4974 18.4646 20.4597 18.2271 20.4917L18.2021 20.1854C18.1604 19.5521 18.425 18.7667 19.0562 17.8062C19.3854 16.0146 19.7542 14.9896 20.1687 14.75L23.7896 6.6125C23.7479 6.11042 24.5125 5.71667 26.1042 5.45625L26.6292 5.41042L26.6708 5.87083C27.6369 5.71842 28.605 5.57952 29.575 5.45417C29.9125 5.4261 30.2509 5.40942 30.5896 5.40417ZM38.1292 6.21667H38.1854C38.475 6.24167 38.7854 6.76458 39.1146 7.76667L39.1354 8.07292C38.9583 8.09375 38.6354 7.56875 38.1542 6.52292L38.1292 6.21667ZM17.6375 11.3896H17.7875L17.8333 11.8687C17.6792 11.8896 17.4646 12.1104 17.2021 12.5688L17.1771 12.2437C17.4833 11.8729 17.6354 11.5854 17.6354 11.3896H17.6375ZM7.25 11.6542L7.27083 11.8042C7.16042 11.8042 6.9875 11.8937 6.77083 12.0021L6.59375 12.0229L6.57292 11.7188L7.25 11.6542ZM16.1771 14.7917L16.2417 15.4479L16.0667 15.4687L16.0021 14.8167L16.1771 14.7917ZM15.7604 15.9729C15.7188 16.5187 15.5854 16.8 15.3021 16.8229L15.1271 16.8437C15.3229 16.4729 15.4333 16.2125 15.4125 16.0167L15.7604 15.9729ZM15.0417 17.6729L15.0625 17.8271L14.7562 18.3479L14.4271 18.3729L14.4062 18.2187C14.7333 18.1979 14.8875 18.025 14.8646 17.6979L15.0417 17.6729ZM14.2958 19.2042L14.2125 20.0083L14.0354 20.0292L13.9729 19.2229L14.2958 19.2042ZM31.9979 19.7875L32.7167 20.2292C32.7375 20.4458 32.6292 20.5771 32.4125 20.5979C32.1062 20.4021 31.8667 20.3146 31.6917 20.3146L31.6479 19.8354L31.9979 19.7875ZM18.1375 21.6437L18.1625 21.95L17.4833 22.0188L17.4625 21.7104L18.1375 21.6437ZM29.3104 22.7792C29.7896 22.9979 30.0333 23.2167 30.0563 23.3896L30.0771 23.5458C29.6187 23.5875 29.2021 23.3479 28.8104 22.825L29.3104 22.7792ZM34.7271 23.3042C35.0979 23.4583 35.2708 23.6125 35.2938 23.7646L35.4021 25.05C35.25 25.4 35.0979 25.575 34.9229 25.575L34.7271 23.3042ZM25.9875 23.4396C27.7375 23.4104 29.075 23.8229 29.9917 24.7L30.0542 25.3562C29.2708 27.6271 28.3979 28.9375 27.4604 29.3521L23.0937 32.8229C19.8437 34.9604 18.0938 36.0271 17.8333 36.0479C12.6604 38.9083 9.43333 40.3708 8.1875 40.4792L7.98958 40.5C8.16458 39.8896 10.4583 35.1771 14.9104 26.3167C16.875 26.1417 19.9729 25.2229 24.1854 23.5667L25.2104 23.4792C25.4771 23.4583 25.7375 23.4458 25.9875 23.4396ZM19.6229 24.4604L19.6437 24.6146L18.9479 24.6792L18.9229 24.525L19.6229 24.4604ZM8.73542 35.0229C8.51667 36.1375 8.275 36.7062 8.03542 36.7292L8.01458 36.5729C7.97083 36.0062 8.21042 35.5042 8.73542 35.0229ZM23.5292 35.7229L23.55 36.0292C23.5708 36.1604 23.0708 36.5729 22.0896 37.2937C19.1854 38.7125 17.4854 39.6938 16.9812 40.1958C13.8396 41.2854 12.2896 41.9646 12.3104 42.225C9.51875 43.3396 7.68542 44.1479 6.81458 44.65C6.61667 44.6708 6.3125 44.5854 5.91875 44.4104C5.875 43.8437 6.1125 43.3812 6.67917 43.0104C7.15833 42.9687 7.64375 43.0333 8.07917 43.2312C8.60208 42.9687 9.49583 42.6604 10.7854 42.3562L10.7604 42.0312L9.73542 42.1146C9.86667 41.9417 10.85 41.4833 12.7271 40.7187L13.25 40.6771L13.2708 40.8292C12.3979 40.8958 11.8958 41.1771 11.7854 41.6354C11.8062 41.8313 11.9188 41.9417 12.1354 41.9208C12.7688 41.4833 13.0958 41.2458 13.0958 41.1792C14.3625 40.9396 17.8333 39.1062 23.5292 35.7229ZM7.72917 37.2292L7.75 37.3792C7.77083 37.5979 7.6625 37.7333 7.44375 37.7542L7.42292 37.6C7.40208 37.4021 7.51042 37.2729 7.72917 37.2292ZM15.5833 39.1812C15.7688 39.1771 15.8729 39.2833 15.8917 39.4542C15.4771 39.4979 14.7125 39.825 13.5562 40.4792L13.3813 40.5L13.3604 40.175C14.1689 40.1217 14.9296 39.7732 15.4979 39.1958C15.5271 39.1896 15.5562 39.1833 15.5812 39.1812H15.5833ZM7.95 41.7708L7.97083 41.9417C7.8375 41.9417 7.68333 42.0312 7.46458 42.1396L7.13958 42.1604C7.11875 42.0083 7.20625 41.8771 7.425 41.8104L7.95 41.7708ZM3.95417 43.7562L4.32292 43.9062C4.19167 44.8875 3.91042 45.3917 3.40625 45.4354C3.07345 45.2756 2.70633 45.2005 2.3375 45.2167L2.29375 44.7375C2.27292 44.5396 2.38333 44.4312 2.62292 44.3667C2.84167 44.3458 2.97083 44.4937 2.99375 44.8208C3.58125 44.1021 3.9125 43.7562 3.95417 43.7562Z" fill="#687759"/>
</svg>
