<svg width="39" height="50" viewBox="0 0 39 50" fill="none" xmlns="http://www.w3.org/2000/svg">
<path d="M17.72 0H25.8953V37.8453C21.7014 38.6412 18.6221 38.96 15.2782 38.96C5.29654 38.96 0.0942383 34.4473 0.0942383 25.7927C0.0942383 17.457 5.6153 12.0422 14.1636 12.0422C15.4907 12.0422 16.4991 12.1484 17.72 12.4672V0ZM17.72 19.0487C16.8313 18.7485 15.8973 18.6047 14.9594 18.6237C10.8176 18.6237 8.43 21.1717 8.43 25.6323C8.43 29.9867 10.7134 32.3743 14.9074 32.3743C15.8095 32.3743 16.5533 32.3222 17.72 32.1618V19.0487ZM38.9042 12.6255V31.5784C38.9042 38.1078 38.4271 41.2413 36.9937 43.9477C35.6665 46.5499 33.9144 48.1958 30.3038 50L22.7118 46.3894C26.3224 44.6914 28.0746 43.2039 29.1892 40.9205C30.358 38.5849 30.7288 35.8765 30.7288 28.7637V12.6234L38.9042 12.6255ZM30.7288 0.0437518H38.9042V8.4316H30.7288V0.0437518Z" fill="#687759"/>
</svg>
