<svg width="57" height="50" viewBox="0 0 57 50" fill="none" xmlns="http://www.w3.org/2000/svg">
<path d="M17.6025 44.5235C15.468 42.842 13.1886 41.2305 11.6332 38.9652C8.35899 34.967 5.83674 30.3382 4.11321 25.4735C3.07161 22.309 2.71196 18.9157 1.37143 15.875C-0.0344833 13.6703 1.61198 11.2555 4.02913 10.5526C5.10342 10.347 6.99978 9.33114 4.71341 10.0575C2.66292 11.5615 2.46441 8.69124 4.56628 8.51141C6.00256 8.31991 6.52802 7.1452 6.03759 6.08959C4.49855 5.08536 9.77425 3.98071 7.11888 2.48372C4.35843 -0.50094 10.9887 -1.07545 9.35387 2.3109C8.96386 4.91488 13.9873 1.83447 12.822 4.84015C14.006 6.28577 17.2592 5.16944 17.1775 7.19658C18.9057 7.31335 19.4966 8.76597 21.1173 8.87807C22.7988 9.63708 25.8419 10.2326 26.4117 12.1266C24.7466 13.4461 20.8885 9.40354 20.704 13.0538C21.2061 18.4486 21.0776 24.0045 23.0511 29.1401C23.9852 32.2509 26.2482 34.6984 28.2917 37.1225C30.2465 39.4953 32.8948 41.1628 35.5946 42.5711C37.9627 43.6874 40.5153 44.4277 43.0982 44.8925C44.1445 44.0914 45.9941 41.1161 47.6243 42.3702C47.7013 43.7808 44.3827 45.3198 47.4678 45.1634C49.2801 44.6169 50.5365 46.5646 52.0289 44.8084C53.4021 46.4362 57.7413 43.7668 56.7627 47.0971C55.4409 47.9472 53.5118 47.4334 52.1877 48.6058C50.0041 47.5151 48.2642 49.582 45.847 49.3204C43.1613 49.8015 40.4312 49.9977 37.7104 50C33.2451 49.6474 28.6841 49.4979 24.436 47.9448C22.0422 47.2489 19.7068 45.885 17.6025 44.5235ZM21.3742 46.1582C23.7096 47.1671 25.996 48.2321 28.5556 48.5544C32.6192 49.1172 36.816 49.9883 40.8936 49.1943C39.0486 48.3605 37.1383 49.5212 35.3003 48.5988C33.0957 49.0728 30.7299 48.4773 28.4879 48.1854C25.9376 47.0504 23.1865 46.2703 20.7997 44.7944C17.8174 43.7061 22.3411 46.1909 23.1491 46.3941C25.0128 47.4521 21.0987 45.85 20.5452 45.4109C18.9851 44.5351 18.7843 44.7173 20.391 45.6071C20.7156 45.7963 21.0356 45.9948 21.3719 46.1559L21.3742 46.1582ZM16.9276 43.0148C19.193 43.8532 16.9183 41.422 15.879 41.5622C15.4189 40.7658 14.1228 40.2613 15.0383 39.834C13.3918 40.4038 13.3147 37.662 12.5394 38.052C10.7995 37.5032 11.8621 35.5555 9.79059 34.3621C9.60143 33.101 7.73076 32.008 7.1329 30.107C6.86899 29.1354 5.01935 26.3399 6.15669 28.9393C7.12355 31.4428 8.82607 33.5867 10.2437 35.7283C11.3413 37.7671 12.6421 39.8993 14.6459 41.1698C15.3232 41.8191 15.9724 42.8116 16.9276 43.0148ZM10.4048 35.8521C10.8182 36.5924 10.4819 35.5111 10.4048 35.8521ZM19.639 44.019C20.1411 43.7948 18.9174 43.7388 19.639 44.019ZM20.8675 44.4674C20.7413 43.8485 20.307 44.8131 20.8675 44.4674ZM22.4088 45.1096C23.1398 44.4114 21.2785 44.6706 22.4088 45.1096ZM25.0432 46.581C25.4892 45.9224 23.6186 46.3311 25.0432 46.581ZM19.98 43.0475C21.1173 42.3118 18.5087 43.0381 19.98 43.0475ZM21.1337 43.622C21.101 43.2343 20.7227 43.7971 21.1337 43.622ZM26.9022 47.2232C27.8316 47.807 32.3203 48.5077 29.5085 47.4637C29.0391 47.5618 24.2982 46.1232 26.9022 47.2232ZM17.745 40.0908C17.6539 39.7008 16.3064 39.6588 17.745 40.0908ZM20.4307 41.6556C21.1314 41.1675 18.9804 41.2819 20.4307 41.6556ZM22.6891 43.0405C23.6933 42.6621 21.0613 42.6598 22.6891 43.0405ZM16.652 38.8998C17.7403 39.7359 21.0426 39.0072 18.3195 38.4023C17.0818 37.7414 14.2863 37.2907 16.1896 38.7994L16.652 38.8998ZM24.2188 43.5192C24.6718 42.7485 22.3177 43.0778 24.2188 43.5192ZM21.9207 41.6906C24.5831 42.4449 19.6834 40.0091 21.2645 41.415L21.6148 41.5738L21.9207 41.6906ZM26.5308 44.3553C29.0507 44.3787 24.2538 44.0097 26.5308 44.3553ZM15.6828 37.4425C15.5848 36.9731 15.0616 37.4822 15.6828 37.4425ZM30.793 46.7468C30.8607 45.899 29.9709 47.3773 30.793 46.7468ZM19.9823 40.0768C19.8305 39.6308 19.1953 40.0582 19.9823 40.0768ZM15.9211 37.1482C17.369 37.0618 13.9406 36.5107 15.9211 37.1482ZM11.1101 34.0375C10.9303 33.3438 9.53603 32.7904 11.1101 34.0375ZM23.74 42.0596C23.6139 42.125 23.4738 41.756 23.74 42.0596ZM31.601 46.8822C31.5777 46.4221 31.1736 47.0574 31.601 46.8822ZM23.0441 41.3403C23.1842 40.7448 21.8086 41.1605 23.0441 41.3403ZM17.1892 37.6223C18.2635 37.5079 15.4633 36.896 17.1892 37.6223ZM27.096 43.7808C28.7728 43.1152 25.4612 43.4538 27.096 43.7808ZM21.9417 40.2847C23.8755 40.5322 19.6414 38.9699 21.519 40.1446L21.9417 40.2847ZM28.6607 44.4137C30.466 43.3347 29.8705 46.9406 31.7224 44.7173C33.5487 43.3861 30.146 46.3684 32.3974 44.9578C34.0252 43.8672 36.4306 45.4716 37.9487 45.9971C39.0416 45.9434 40.1042 46.9429 41.2252 46.3357C43.3808 45.7519 37.0075 45.4716 38.6796 44.4441C36.7062 45.0162 35.2466 43.7574 34.2774 42.494C32.0634 41.9825 29.5038 40.8522 28.3992 38.8928C27.9508 38.1571 29.0507 38.9955 28.0115 37.7951C26.678 36.6087 26.0124 35.2612 25.1156 33.8203C24.0483 33.2504 23.9245 31.5713 23.8147 33.7642C23.8241 32.3793 22.5233 31.4475 22.2056 31.8352C22.201 30.5016 23.5975 31.1696 22.619 30.184C22.4088 28.8015 21.7152 27.3605 21.5074 25.8005C21.1851 25.0485 21.4606 23.4394 20.4027 25.1419C20.0174 26.9401 20.2743 22.9302 20.8745 24.2544C21.6615 22.9022 20.5942 23.0634 20.5475 23.2502C21.0613 22.1105 20.8745 20.4944 20.4144 21.111C20.6876 19.9036 20.8464 16.669 20.0057 17.2435C20.5148 15.9824 20.9725 11.468 18.7586 13.1892C17.8618 13.2009 16.3111 13.5162 15.5754 13.8805C17.8781 15.1487 15.3442 14.3383 14.4077 14.1374C14.2863 15.3098 13.3568 14.803 12.1984 14.8147C14.0504 15.0436 11.2969 16.7064 10.2343 16.0618C8.85643 16.7204 11.4254 18.3669 10.2623 18.876C10.4048 19.642 8.1488 18.5981 8.32396 20.3706C6.98576 19.8078 8.14179 22.4725 8.81206 21.571C11.0891 22.1876 10.4141 23.5935 10.4725 24.927C10.1012 25.7047 8.63924 23.0984 10.1456 23.2198C8.95919 21.2885 8.83308 22.5215 7.8452 23.4183C7.61399 23.4837 10.3651 24.6958 8.63924 25.2937C10.1573 25.5272 10.1993 26.8584 10.5076 27.6992C11.4207 28.6497 11.2339 26.6482 12.3269 27.7926C11.6356 26.7743 8.66726 24.9247 11.0564 25.5179C11.0447 24.4926 10.6243 23.6659 11.3577 23.6869C12.0816 22.3744 10.5986 26.9261 12.2334 25.2563C12.6842 25.0578 12.7963 23.9415 13.6113 25.3614C14.7907 26.5244 14.0364 27.3652 12.3712 26.3026C12.6678 27.3138 14.5992 27.6735 14.2372 29.2569C14.6226 30.6464 15.1597 30.135 15.6291 30.0556C15.9981 31.4055 16.206 30.4129 16.2247 29.7683C17.9085 30.1303 17.5138 31.1252 18.0416 31.8235C19.2023 32.3466 16.3788 28.269 18.3732 30.5951C20.4704 32.4891 19.1603 33.2808 17.2756 32.9772C18.4666 32.8814 18.852 34.5886 20.342 34.5279C21.7012 35.1748 22.6213 37.6573 20.2789 36.6228C19.4662 35.8918 16.5913 34.988 18.9407 36.3799C21.1103 37.3841 22.8315 37.9866 24.9241 39.2454C26.4187 40.315 27.068 41.5388 27.6331 41.7817C26.3767 42.3819 23.8428 41.3006 25.7251 40.969C24.5504 40.7564 23.2309 40.1632 24.3542 41.6229C25.3117 42.4239 27.7406 42.3375 28.1773 42.4286C27.806 43.2413 27.1731 43.3067 28.1913 43.3698C27.0563 43.977 28.5556 44.0681 28.6607 44.4137ZM26.3393 37.8559C25.648 37.1319 25.4682 35.7773 26.2155 36.9567C26.5986 37.1109 27.4416 39.1684 26.3393 37.8559ZM33.9014 42.6598C34.3334 42.6341 33.9154 42.9868 33.9014 42.6598ZM25.2463 36.0833C25.4962 36.9264 25.2207 34.9903 25.2463 36.0833ZM24.4943 35.072C25.592 35.5485 23.6256 33.3929 24.4943 35.072ZM15.3862 28.7851C15.8954 28.6473 15.6361 29.6586 15.3862 28.7851ZM22.6354 32.7133C23.0044 33.7035 22.9483 31.5362 22.6354 32.7133ZM17.5138 29.1518C18.2681 29.7613 17.1518 28.5025 17.5138 29.1518ZM21.909 30.5624C21.087 28.7174 22.4929 29.5535 22.0912 30.866L21.909 30.5624ZM14.3283 25.5062C13.9593 24.899 13.3521 23.1241 13.5483 22.5823C13.7258 23.4651 15.4259 26.382 14.382 23.792C13.2283 21.6201 15.7599 24.4973 16.0215 25.0391C16.1406 25.5763 15.3092 24.892 15.872 26.1554C14.8444 24.7145 15.2648 26.9495 14.3283 25.5062ZM11.9859 23.8924C12.523 24.857 12.0816 22.4842 11.9859 23.8924ZM13.0392 24.2544C13.8916 25.7351 13.5413 23.1918 13.0392 24.2544ZM10.5052 22.2927C9.63179 21.4286 9.00123 20.6275 10.5449 21.7555C11.1405 21.7789 9.22309 19.9386 10.6874 21.1717C12.2288 21.4519 11.4487 23.6986 10.5052 22.2927ZM11.8364 22.2576C12.3432 21.7555 12.105 22.7528 11.8364 22.2576ZM12.6538 22.5215C13.588 23.1241 11.8878 21.0806 12.6538 22.5215ZM11.026 20.9638C8.48977 18.7078 14.2139 22.1455 11.4394 21.3842L11.026 20.9638ZM18.2915 25.1863C17.1938 24.5277 18.0019 20.5528 18.3756 23.2712C19.4429 22.9256 18.3172 24.6748 19.1112 24.6585C18.9874 25.7631 18.6278 26.1601 18.2915 25.1863ZM20.9772 26.7743C21.2061 27.5917 21.087 25.5763 20.9772 26.7743ZM20.5101 26.3119C20.6339 25.8005 20.5241 26.9145 20.5101 26.3119ZM11.5258 20.2235C9.89802 17.9745 16.2597 22.4959 12.5697 20.7933C12.1844 20.6929 11.7196 20.6556 11.5258 20.2235ZM16.7011 22.9676C17.0444 23.2806 16.5469 21.0759 16.7011 22.9676ZM20.6292 25.4875C20.9328 24.4086 20.6526 26.1998 20.6292 25.4875ZM11.7734 19.3641C12.7426 19.1586 15.7856 21.0666 12.9901 19.9106C12.6795 19.5649 12.0162 19.7237 11.7734 19.3641ZM20.0874 23.5094C20.1902 21.5734 20.6666 22.3534 20.0921 23.785L20.0874 23.5094ZM12.495 18.6915C12.8897 18.1123 11.4464 16.0758 12.7029 17.9605C13.2447 18.3925 14.2722 18.6845 13.3638 18.8643C14.7907 20.1231 13.0158 19.2053 12.495 18.6915ZM19.6764 22.9046C19.9496 20.6999 19.9169 24.196 19.6764 22.9046ZM11.6706 16.655C11.9719 16.5265 11.8294 17.0567 11.6706 16.655ZM13.5436 17.7713C14.4311 18.8993 14.0247 16.7578 13.5436 17.7713ZM18.8286 20.7116C18.9291 21.2768 18.824 20.3216 18.8286 20.7116ZM18.5227 20.0343C19.2046 20.9919 17.7894 18.2221 18.5227 20.0343ZM18.072 18.8456C18.4923 19.7868 17.9482 18.0983 18.072 18.8456ZM18.8053 17.6545C18.3008 16.7671 19.4405 13.7451 19.5666 15.6204C19.0365 17.08 19.4148 17.8974 19.7838 15.938C20.4681 14.3967 19.639 18.9811 18.8053 17.6545ZM19.5573 13.1612C19.7768 12.8926 19.6063 13.4858 19.5573 13.1612ZM18.3008 37.9469C18.3382 38.1128 18.0019 37.6877 18.3008 37.9469ZM20.8931 39.2571C22.3318 39.6284 22.3247 39.0329 21.0216 38.8578C20.321 38.2038 18.1117 37.5149 20.0898 38.776C20.2205 39.1076 20.6362 39.1006 20.8908 39.2571H20.8931ZM15.7739 35.8591C16.568 36.4499 18.7632 37.5382 16.9043 36.0833C17.5325 35.3546 15.7039 34.967 16.3111 34.4812C14.7697 33.5377 15.0966 33.6218 16.1756 33.6498C14.3213 32.823 16.4418 32.8838 16.3414 32.4587C15.6268 32.3186 12.7916 31.1999 14.4614 32.5521C12.7659 31.688 14.0574 32.8744 13.5459 32.7483C11.8107 32.2766 15.0873 34.0678 13.2704 33.6241C14.2629 34.4111 15.9467 35.6419 13.6907 34.4578C13.3918 34.8852 15.3045 35.5321 15.7739 35.8591ZM18.483 37.4168C21.7783 38.4771 16.8692 36.1183 18.483 37.4168ZM32.3553 45.8196C32.4021 45.1657 31.9069 46.3801 32.3553 45.8196ZM33.7846 46.4198C34.5436 45.6842 33.815 47.5945 35.0434 46.24C35.0574 45.2708 35.006 44.6986 33.6305 45.8757C33.2521 46.0858 33.084 46.9803 33.7846 46.4198ZM11.1475 32.2042C10.9139 31.2863 9.51268 31.2934 11.1475 32.2042ZM12.6702 33.2037C12.105 32.2649 10.6524 32.3536 12.6702 33.2037ZM21.3345 38.428C22.18 39.1777 25.2183 38.9792 22.3621 38.5214C21.9371 37.8932 19.6741 38.045 21.3345 38.428ZM33.2405 45.7822C34.5436 44.6893 31.9793 46.268 33.2405 45.7822ZM35.9495 47.6412C35.9565 47.2909 35.389 47.7954 35.9495 47.6412ZM35.9519 47.1508C37.3928 45.6234 34.5553 47.2419 35.9519 47.1508ZM7.4038 29.07C6.17538 27.3185 6.64012 26.5291 5.45373 25.0998C5.22954 24.0022 3.42193 21.5197 4.51957 24.1517C5.5238 25.6907 5.82273 28.0728 7.4038 29.07ZM35.4988 46.665C38.1518 44.9508 34.4128 45.9177 35.4988 46.665ZM37.5236 47.4591C38.8548 46.3194 36.6829 47.2209 37.5236 47.4591ZM10.6967 30.2658C11.0774 29.7006 9.71586 30.1934 10.6967 30.2658ZM37.1009 46.9149C38.3877 46.0859 36.8066 46.2143 36.8674 46.9897L37.1009 46.9149ZM19.653 35.9175C19.6063 35.357 18.9734 35.9642 19.653 35.9175ZM20.7297 36.5387C20.3887 35.8451 20.2042 36.6485 20.7297 36.5387ZM39.1654 47.4778C40.8119 46.2867 38.1658 47.2489 38.8198 47.702L39.1654 47.4778ZM38.5348 47.1742C39.8754 46.0485 37.1172 47.6716 38.5348 47.1742ZM41.7577 49.3181C42.6592 48.7155 40.6624 49.1242 41.7577 49.3181ZM11.5235 29.8594C12.7309 30.1303 16.3484 32.8347 14.2139 30.0462C13.1209 29.724 13.7771 27.0499 12.6608 27.524C13.4081 28.7734 13.2774 29.3059 11.7056 28.5189C9.72987 27.5544 10.5963 28.9953 10.9817 29.3923C10.4562 29.5138 11.6776 29.8501 11.5235 29.8594ZM6.02124 25.5155C6.2361 24.6211 4.02913 20.5948 4.97965 23.4978C5.32062 24.105 5.28559 25.2587 6.02124 25.5155ZM16.1196 31.7418C16.0892 31.667 15.4983 31.221 16.1196 31.7418ZM17.6516 32.0967C17.6516 31.1509 15.9584 31.7137 17.6516 32.0967ZM30.9214 40.4645C30.6692 39.8153 29.9218 40.4505 30.9214 40.4645ZM31.559 40.9293C31.4655 40.5673 31.1923 40.9993 31.559 40.9293ZM36.8206 44.2432C37.3251 43.8695 36.1901 44.1965 36.8206 44.2432ZM8.77002 26.2162C10.218 25.6557 7.21931 25.8168 8.77002 26.2162ZM29.7537 39.4369C29.7373 38.5004 28.8312 39.6705 29.7537 39.4369ZM8.19784 24.885C9.12734 24.5697 7.33841 24.6771 8.19784 24.885ZM10.8952 26.1928C10.8789 25.8822 10.6103 26.3096 10.8952 26.1928ZM43.8012 46.3708C44.9993 46.1279 47.7224 46.978 48.1614 46.0532C46.7111 46.0181 43.1403 45.0302 42.9721 46.289L43.2897 46.3404L43.8035 46.3708H43.8012ZM11.7547 26.4077C11.7757 25.4572 11.0144 26.3726 11.7547 26.4077ZM4.65969 21.4846C4.33741 19.6747 3.4336 21.209 4.65969 21.4846ZM6.35053 21.9097C6.37155 21.3282 4.80215 21.3865 6.35053 21.9097ZM7.31739 22.3838C7.09786 22.6687 7.03714 22.1572 7.31739 22.3838ZM13.4011 26.2839C13.6861 26.0223 12.7239 26.0901 13.4011 26.2839ZM6.67515 21.3141C6.51168 19.9479 4.71341 21.1086 6.67515 21.3141ZM3.20473 19.0628C3.15802 18.4322 2.86843 19.301 3.20473 19.0628ZM3.72086 18.6728C3.63678 17.9255 3.27713 18.7662 3.72086 18.6728ZM6.57006 20.3753C7.77747 19.9012 4.37477 19.3944 6.32484 20.2842L6.57006 20.3753ZM44.7167 43.9373C45.4874 43.2296 43.7358 43.7177 44.7167 43.9373ZM49.3268 46.3264C49.6351 45.4109 48.5468 46.4455 49.3268 46.3264ZM6.86199 18.883C6.99044 17.9979 5.9068 19.0581 6.86199 18.883ZM2.80771 16.1669C2.59052 14.9174 2.62088 12.7245 4.70407 13.4672C1.92259 14.0183 6.62845 16.9236 6.03525 14.6302C7.20296 14.6862 8.32396 13.9389 7.70741 15.0739C10.0125 14.8194 11.6099 12.8226 13.8355 13.1005C15.5684 12.8716 17.4648 12.6988 19.3331 12.0005C20.8698 11.8884 22.3481 10.2349 21.505 9.25641C19.4125 9.07892 17.2195 9.34048 14.9028 9.80056C12.3385 10.333 10.0078 11.3466 7.41782 11.7833C4.89557 12.122 7.9246 12.7175 7.20296 12.8483C5.88579 13.306 8.77235 13.6143 7.03247 14.0954C5.95818 13.8899 4.83719 13.5209 5.29726 12.3905C2.88011 12.7011 0.754886 13.7054 2.66525 16.1646L2.80771 16.1669ZM8.63223 13.2009C9.19974 11.1131 11.6683 14.9174 9.56172 13.4765C9.3095 13.2897 8.89613 13.1379 8.63223 13.2009ZM8.74199 12.1874C9.55939 11.5801 9.17638 12.5283 8.74199 12.1874ZM9.78125 12.206C9.85599 11.2462 12.1587 12.7152 10.1619 12.5517L9.78125 12.206ZM11.2012 11.6339C11.7196 11.0267 11.3506 12.1733 11.2012 11.6339ZM11.5655 11.391C12.4296 10.3541 16.4582 10.7301 13.5086 11.2906C12.7192 10.695 12.112 11.6409 11.5655 11.391ZM16.8225 10.5806C19.4335 11.5895 16.6917 7.7454 16.8225 10.5806ZM18.3148 10.5712C18.859 9.14197 20.4307 9.99907 18.5671 10.284C18.6068 10.4358 18.511 11.022 18.3148 10.5712ZM6.2758 18.1497C7.90358 17.1524 4.54526 17.2856 6.2758 18.1497ZM7.47854 18.486C8.05071 17.8787 6.23843 18.2384 7.47854 18.486ZM3.92871 15.9637C4.86054 15.2514 2.82873 15.6928 3.92871 15.9637ZM52.0452 46.0672C52.0732 45.2381 51.3352 46.4408 52.0452 46.0672ZM47.1572 42.7299C47.2973 41.7747 46.5266 42.8139 47.1572 42.7299ZM53.3927 46.3895C54.6936 46.3895 57.3349 45.9854 54.5021 45.9854C54.0583 46.0555 51.9144 46.0415 53.3927 46.3895ZM8.53648 17.8974C9.58975 17.8274 10.1853 16.7367 8.3333 16.7998C5.46074 16.5032 10.8649 17.7807 7.9643 17.4163C7.57429 17.6732 8.51546 17.9698 8.53648 17.8998V17.8974ZM9.46597 18.3692C9.35387 17.6919 9.13901 18.7288 9.46597 18.3692ZM10.5636 15.4336C11.0237 14.8661 9.93305 15.2818 10.5636 15.4336ZM7.0605 9.57636C8.94284 8.93646 11.5141 8.21949 12.4016 9.89164C11.4978 8.80334 12.0373 7.73372 12.892 9.32414C14.0971 10.9332 14.702 8.59315 13.9149 8.05134C14.8094 9.16299 15.8276 9.68846 14.5151 8.1214C15.9397 6.40721 11.6589 8.34793 10.6851 8.32692C10.218 8.5371 5.84608 9.44091 7.0605 9.57636ZM8.16281 7.46748C9.2371 6.6571 11.8714 7.94858 10.1806 6.66177C10.0171 6.51697 6.47665 7.63797 8.16281 7.46748ZM12.0723 7.62863C13.3287 7.65899 11.5328 5.94246 13.0275 6.72015C12.7823 5.91677 11.2853 5.7673 10.5543 5.44735C10.1409 6.18067 11.395 7.63797 12.0723 7.62863ZM8.84942 4.0788C9.28381 3.49028 8.08808 4.37773 8.84942 4.0788ZM10.4468 4.46181C12.4693 4.19324 9.93305 3.5907 10.0405 4.43846L10.4468 4.46181ZM7.46452 2.1264C6.03992 0.26741 10.1409 2.43934 8.69529 0.49161C7.4762 -0.477586 6.30616 1.58458 7.46452 2.1264ZM25.7391 11.9702C26.393 10.8118 23.0417 10.4101 25.3001 11.5615C25.5079 11.6315 25.4612 12.0519 25.7391 11.9702Z" fill="#687759"/>
</svg>
