<svg width="51" height="51" viewBox="0 0 51 51" fill="none" xmlns="http://www.w3.org/2000/svg">
<path d="M49.5561 23.2708L27.7249 1.44161C27.1196 0.838588 26.3001 0.5 25.4457 0.5C24.5913 0.5 23.7718 0.838588 23.1665 1.44161L18.6436 5.97286L24.3936 11.7229C25.072 11.493 25.8012 11.4581 26.4985 11.622C27.1957 11.7859 27.8331 12.1421 28.338 12.6501C28.8429 13.158 29.1953 13.7975 29.355 14.4957C29.5147 15.1939 29.4754 15.9229 29.2415 16.5999L34.779 22.1416C35.5985 21.8566 36.4906 21.8585 37.3089 22.1468C38.1273 22.4351 38.8234 22.9927 39.2834 23.7284C39.7434 24.4641 39.9399 25.3342 39.8406 26.1962C39.7414 27.0582 39.3524 27.8609 38.7374 28.4728C38.3819 28.8289 37.9597 29.1113 37.495 29.304C37.0303 29.4968 36.5321 29.5959 36.029 29.5959C35.5259 29.5959 35.0278 29.4968 34.563 29.304C34.0983 29.1113 33.6761 28.8289 33.3207 28.4728C32.788 27.9387 32.4242 27.2596 32.2746 26.5202C32.1249 25.7809 32.196 25.0138 32.479 24.3145L27.2936 19.1562V32.7499C27.6603 32.9291 28.0061 33.1728 28.3103 33.4749C29.0237 34.1958 29.424 35.169 29.424 36.1833C29.424 37.1975 29.0237 38.1707 28.3103 38.8916C27.9535 39.2487 27.5298 39.532 27.0635 39.7253C26.5972 39.9185 26.0974 40.018 25.5926 40.018C25.0878 40.018 24.5879 39.9185 24.1216 39.7253C23.6553 39.532 23.2316 39.2487 22.8749 38.8916C22.5187 38.5366 22.2361 38.1149 22.0433 37.6505C21.8505 37.1861 21.7512 36.6882 21.7512 36.1853C21.7512 35.6825 21.8505 35.1846 22.0433 34.7202C22.2361 34.2558 22.5187 33.8341 22.8749 33.4791C23.254 33.1041 23.6811 32.8208 24.1353 32.6333V18.9062C23.6676 18.715 23.2425 18.4329 22.8845 18.0764C22.5266 17.7198 22.2429 17.2958 22.0499 16.8288C21.857 16.3619 21.7585 15.8613 21.7603 15.356C21.7621 14.8508 21.864 14.3509 22.0603 13.8854L16.4103 8.20827L1.43945 23.1687C0.189453 24.4291 0.189453 26.4687 1.43945 27.7291L23.2728 49.5562C23.5717 49.8554 23.9267 50.0927 24.3174 50.2547C24.7081 50.4166 25.1269 50.5 25.5499 50.5C25.9728 50.5 26.3916 50.4166 26.7823 50.2547C27.173 50.0927 27.528 49.8554 27.8269 49.5562L49.5561 27.827C49.8559 27.5282 50.0937 27.1731 50.256 26.7822C50.4183 26.3913 50.5018 25.9722 50.5018 25.5489C50.5018 25.1256 50.4183 24.7065 50.256 24.3156C50.0937 23.9246 49.8559 23.5696 49.5561 23.2708Z" fill="#687759"/>
</svg>
