<svg width="61" height="61" viewBox="0 0 61 61" fill="none" xmlns="http://www.w3.org/2000/svg">
<path d="M38.2379 53.625C38.2473 52.1659 38.2563 47.1018 38.2563 45.0968C38.2563 42.1993 37.2666 40.3034 36.1566 39.3437C43.0476 38.5737 50.282 35.949 50.282 24.0103C50.282 20.6181 49.087 17.8431 47.1023 15.6718C47.4201 14.8856 48.4813 11.725 46.7938 7.44683C46.7938 7.44683 44.2013 6.61183 38.2932 10.6356C35.8207 9.94402 33.1773 9.60183 30.5482 9.58808C27.9188 9.60183 25.2757 9.94433 22.8029 10.6356C16.8948 6.61183 14.3026 7.44683 14.3026 7.44683C12.6151 11.725 13.6763 14.8856 13.9941 15.6718C12.0095 17.8431 10.8145 20.6181 10.8145 24.0103C10.8145 35.949 18.0485 38.5737 24.9395 39.3437C23.8298 40.3034 22.8398 42.1993 22.8398 45.0968C22.8398 47.1018 22.8491 52.1659 22.8582 53.625M8.93945 41.125C12.0454 41.3446 13.8363 44.1671 13.8363 44.1671C16.597 48.9168 21.0795 47.5431 22.841 46.75" stroke="#687759" stroke-width="3.75" stroke-linecap="round" stroke-linejoin="round"/>
</svg>
