<svg width="43" height="51" viewBox="0 0 43 51" fill="none" xmlns="http://www.w3.org/2000/svg">
<path d="M24.4524 50.4501C23.803 50.3395 23.1181 50.0325 22.7401 49.6879C22.4758 49.4153 22.3275 49.0507 22.3266 48.671C22.3266 48.2951 22.5146 47.7522 22.832 47.2176C23.0146 46.9119 23.1611 46.5861 23.2684 46.2466C23.3311 46.0106 23.4689 45.6201 23.5754 45.3758L23.7654 44.9331L23.8155 41.9344C23.8427 40.2847 23.8928 38.7478 23.9262 38.5139C24.0343 37.8282 24.2113 37.1552 24.4545 36.505L24.6299 36.0686L24.3731 35.9162C24.1329 35.7721 23.9346 35.5653 23.1619 34.6465C22.2076 33.5189 20.9547 32.9008 19.1776 32.6836C18.5941 32.6285 18.0091 32.5889 17.4235 32.5646C14.8091 32.4435 13.3181 31.8984 11.9733 30.5766C10.9709 29.5868 10.4468 28.4362 10.2338 26.7426C9.9456 24.4498 9.62819 23.2699 9.04349 22.3156C8.9002 22.0808 8.73445 21.8605 8.54858 21.6578L8.31053 21.4218L7.78847 21.756C7.49821 21.9397 7.10145 22.1799 6.90516 22.2885C6.25665 22.6455 5.63169 23.0438 5.03411 23.4808C3.58072 24.5396 1.98741 25.8656 1.11453 26.7426C0.721946 27.1352 0.515213 27.3002 0.431684 27.2897C-0.169722 27.1999 0.293862 24.6168 1.25862 22.6748C2.50111 20.1752 4.58515 17.8656 7.00539 16.3036C8.9892 15.0235 12.1946 13.2632 13.6793 12.643C16.3105 11.5425 19.7185 10.3501 22.0531 9.71321C22.5459 9.57957 22.8487 9.45845 23.0492 9.31645C23.5086 8.99695 23.9554 8.8466 24.4712 8.83616C24.9014 8.8299 24.9432 8.81528 25.3587 8.54381C25.8495 8.2264 25.9894 8.20552 26.4822 8.37675L26.8038 8.49161L27.1943 8.2264L27.5869 7.9612L28.1507 7.97373C28.5788 7.98208 28.7751 7.95911 28.9588 7.87767C29.1969 7.77326 29.2052 7.76073 29.272 7.36606C29.4224 6.51824 29.4391 6.09224 29.3493 5.58272C29.2282 4.90614 29.2178 2.27498 29.3326 1.76337C29.4558 1.20791 29.5352 1.09723 29.9486 0.892585C30.5688 0.585617 31.0324 0.5 32.1037 0.5C33.4067 0.5 34.0666 0.67541 34.5552 1.14735C34.9979 1.57752 35.0731 2.56733 34.8413 4.90614C34.7077 6.24677 34.691 6.62474 34.7265 7.50388C34.7474 8.06979 34.7829 8.5981 34.8037 8.67537C34.8392 8.8111 34.8706 8.81946 35.3446 8.8299C35.8061 8.83825 35.8875 8.85913 36.3281 9.09092C36.7541 9.31228 37.0715 9.57957 37.1342 9.76959C37.1467 9.81136 37.2177 9.81345 37.3514 9.77586C37.5978 9.70277 37.8212 9.78212 37.9966 10.0035C38.1031 10.1392 38.1699 10.1664 38.4205 10.1664C38.7546 10.1664 38.8716 10.2457 39.1493 10.655C39.2799 10.8379 39.4573 10.9822 39.663 11.0726C40.1224 11.3023 40.7384 11.9372 40.9786 12.4383C41.344 13.1943 41.4213 14.0609 41.1895 14.8481C41.106 15.1405 41.106 15.1509 41.2772 15.437C41.6406 16.0426 41.7721 16.7944 41.6259 17.4292L41.5403 17.8051L41.7867 18.0494C43.0042 19.2668 42.8246 21.2464 41.3378 23.0193C41.1791 23.2073 40.9932 23.5038 40.9243 23.6834C40.6319 24.4414 40.3104 24.9739 39.8823 25.4124L39.4563 25.851H39.0094C38.5709 25.851 37.9549 25.7048 37.579 25.5064C37.4224 25.425 37.4119 25.427 37.4432 25.5273C37.5477 25.8865 37.7857 27.344 37.8713 28.148C38.0029 29.3884 37.9632 31.1926 37.7878 31.9673C37.6631 32.5414 37.4541 33.0938 37.1676 33.6066C37.0089 33.8697 36.9943 33.9303 37.0298 34.2414C37.0799 34.6946 36.9734 35.4442 36.7896 35.9391C36.5725 36.5176 36.491 36.789 36.443 37.0793C36.4012 37.3341 36.4012 37.3361 36.5808 37.3361C36.821 37.3361 36.9462 37.4781 36.9462 37.7517C36.9462 37.877 36.8418 38.5327 36.7124 39.2134C36.3553 41.1096 36.3323 41.3288 36.3281 43.1706C36.3219 45.0688 36.3198 45.0542 36.7541 45.3361L37.7231 45.9667C38.5568 46.5223 39.4507 46.9818 40.3876 47.3366C41.7512 47.8754 41.9392 48.0132 41.9392 48.4726C41.9392 48.671 41.8995 48.7503 41.7304 48.9132C41.2041 49.4207 40.1767 49.5334 38.1031 49.3142C37.0272 49.2117 35.9471 49.1595 34.8664 49.1575C32.016 49.1158 31.5941 49.0176 31.2224 48.3055C31.0094 47.8983 31.047 47.3658 31.3456 46.493C31.4784 46.1091 31.592 45.7188 31.686 45.3236C31.8802 44.3734 31.7487 43.25 31.2934 41.9741L30.9071 40.8924C30.5187 39.7898 30.3099 37.7726 30.5396 37.3174C30.5814 37.2338 30.6524 37.2129 30.8445 37.2255L31.093 37.2464L31.2934 36.8204C31.4501 36.4904 31.6234 36.2691 32.087 35.8013L32.6821 35.2041L32.6529 34.824C32.6236 34.4607 32.1454 32.6794 32.0765 32.6836C32.0577 32.6836 31.9241 32.8674 31.7758 33.0908C31.4208 33.6296 30.6231 34.4648 30.1762 34.7655C29.98 34.8992 29.8171 35.0516 29.8171 35.1038C29.8129 35.3189 29.6208 35.7512 29.3973 36.054C29.176 36.3526 29.1614 36.3944 29.1948 36.6596C29.2449 37.0417 29.1259 38.2738 28.9776 38.9148C28.8467 39.3949 28.6669 39.8602 28.4409 40.3035C27.8771 41.4729 27.4553 42.5128 27.3446 42.9973C27.2687 43.4624 27.2213 43.9318 27.2026 44.4027C27.1755 44.954 27.1191 45.4969 27.0773 45.6076C27.023 45.7642 27.021 45.8832 27.0732 46.1213C27.1107 46.2925 27.1358 46.6767 27.1295 46.9774C27.1212 47.3951 27.1546 47.6666 27.2757 48.1552C27.4845 48.9842 27.5305 49.5063 27.4282 49.8174C27.3655 50.0095 27.2945 50.0868 27.0815 50.1933C26.5866 50.4439 25.2042 50.5796 24.4524 50.4501ZM26.4363 49.7861C26.7223 49.7047 26.9625 49.4541 26.9625 49.2369C26.9625 49.1429 26.879 48.8547 26.7808 48.5979C26.5929 48.1176 26.2504 46.8501 26.2504 46.6391C26.2504 46.5264 26.2588 46.5243 26.4279 46.6141L26.6054 46.7081L26.6012 46.4784C26.5803 46.2686 26.5354 46.0619 26.4676 45.8623C26.313 45.3967 26.2922 45.3862 25.3107 45.3319L24.6383 45.2964L24.3981 45.5324C24.2603 45.6689 24.1416 45.8235 24.0452 45.9918C23.9367 46.2069 23.8949 46.5243 23.9659 46.5974C23.9826 46.6162 24.1434 46.5974 24.3209 46.5556C24.4264 46.5242 24.5348 46.5039 24.6446 46.4951C24.6446 46.5055 24.465 46.6475 24.2436 46.8104C23.2622 47.5371 22.9218 47.9881 22.9218 48.5582C22.9218 49.1555 23.4772 49.619 24.3585 49.7569C24.9641 49.8529 26.1418 49.8696 26.4363 49.7861ZM39.7048 48.8151C39.9491 48.5185 39.9199 48.2199 39.6087 47.8754C39.4296 47.6926 39.2241 47.5377 38.999 47.416C38.7637 47.2922 38.5351 47.1563 38.314 47.0088C38.1344 46.8835 37.5581 46.5494 37.036 46.257C36.6618 46.057 36.2947 45.8439 35.9355 45.618L35.7894 45.5032V43.2583C35.7894 41.0448 35.7852 41.0177 35.6683 41.049C35.0982 41.2056 34.1522 41.2766 32.9494 41.2536L31.6568 41.2328L31.8406 41.688C32.1893 42.5567 32.371 43.7136 32.3689 45.0417C32.3689 45.5387 32.3396 45.7224 32.2164 46.0691C32.1533 46.2415 32.0927 46.4148 32.0348 46.589C32.0118 46.6621 32.1016 46.7143 32.4399 46.8146C32.68 46.8876 33.0434 46.9628 33.248 46.9858L33.6197 47.0234L33.5821 47.4014C33.5404 47.8294 33.5884 48.2742 33.6949 48.4162C33.7555 48.4956 34.006 48.5248 35.1358 48.5791C35.9961 48.6209 36.9275 48.7086 37.6604 48.8172C38.2973 48.9111 38.9823 48.9926 39.1848 48.9947C39.5231 49.0009 39.5607 48.9884 39.7048 48.8151ZM26.6492 44.9915C26.6806 44.9707 26.7265 44.528 26.7474 44.008C26.8121 42.5462 26.8664 42.3374 27.6036 40.6898C28.2029 39.345 28.5245 38.09 28.4952 37.1962L28.4785 36.6658L28.2551 36.8872C27.7811 37.357 28.1068 36.6157 28.6665 35.9537C29.0904 35.4526 29.2366 35.1707 29.3075 34.728C29.3368 34.5484 29.4057 34.4565 29.6834 34.2477C30.7317 33.4437 31.4939 32.4309 31.9867 31.1926C32.1037 30.8982 32.4002 29.8979 32.6445 28.9666C33.0998 27.2417 33.3441 26.5046 33.5633 26.183C33.6469 26.0598 33.6782 26.041 33.6573 26.1224C33.532 26.6132 33.4902 26.8115 33.3858 27.4526C33.319 27.8515 33.1979 28.6304 33.1185 29.1817C32.9557 30.2926 32.7928 31.0109 32.5735 31.5706L32.4273 31.9423L32.822 32.9551C33.225 33.9929 33.413 34.7405 33.4527 35.4714L33.4735 35.8723L33.152 35.9391C32.7341 36.0148 32.3619 36.2499 32.1141 36.5948C31.8301 36.9916 31.6798 37.3215 31.7529 37.3967C31.7842 37.428 32.1851 37.5011 32.6403 37.5533C33.3545 37.6368 33.6218 37.641 34.5594 37.5805C34.9642 37.562 35.3677 37.523 35.7685 37.4635C35.8562 37.4322 35.9418 37.2526 36.0901 36.789C36.4284 35.724 36.4931 35.3419 36.4534 34.5964L36.42 33.9344L36.5912 33.7152C36.9922 33.2057 37.3012 32.291 37.4265 31.2302C37.5832 29.923 37.3012 27.1874 36.7687 24.8361C36.5182 23.7231 36.4138 23.0527 36.4138 22.5599V22.1277L36.0107 22.1694C34.5761 22.3281 32.8408 22.2843 31.7758 22.065C31.1995 21.9481 29.7377 21.5221 29.4161 21.378L29.1676 21.2673L29.1321 21.5492C29.1129 21.7079 29.0851 21.8655 29.0486 22.0212C29.0006 22.1987 29.0194 22.2342 29.3222 22.5349C29.698 22.9107 29.815 23.1112 29.815 23.3743C29.815 23.5309 29.721 23.6625 29.2658 24.1407C28.9317 24.4915 28.5057 24.8611 28.1799 25.0783L27.6453 25.4375L27.424 26.2227C26.6012 29.1253 26.4467 31.7543 26.9855 33.6442L27.1191 34.1161L26.8581 34.4398C25.8766 35.676 25.3003 36.6136 25.2126 37.1336C25.1958 37.238 25.1123 37.5826 25.0288 37.9C24.82 38.706 24.6571 39.89 24.5861 41.1701C24.5326 42.2426 24.4602 43.314 24.3689 44.3839L24.3334 44.7013L24.7406 44.8266C24.9661 44.8955 25.3107 44.979 25.507 45.0083C25.8703 45.0667 26.549 45.0563 26.6513 44.9915H26.6492ZM34.5699 40.5061C35.2026 40.4685 35.7831 40.3682 35.8959 40.2764C35.9439 40.2388 36.0003 40.0675 36.0212 39.9005L36.0567 39.5914L35.5555 39.7021C35.1573 39.7792 34.755 39.8335 34.3506 39.865C33.3879 39.9075 32.4233 39.8795 31.4647 39.7814C31.1473 39.7334 31.1452 39.7355 31.2496 40.1511C31.3269 40.4643 31.3436 40.4726 32.1788 40.5374C32.7343 40.5791 33.5028 40.5708 34.5699 40.5061ZM34.0374 39.0861C34.8643 39.0172 35.9042 38.8397 36.1047 38.7311C36.1694 38.6956 36.2321 38.5765 36.255 38.4408L36.3302 38.0065L36.3678 37.7997L36.1673 37.8415C35.2631 38.0315 34.5761 38.0879 33.2021 38.0879C31.8677 38.0879 31.7153 38.0754 31.3644 37.9563C31.2281 37.8978 31.0824 37.8639 30.9343 37.8561C30.8758 37.8916 30.8716 38.3573 30.9238 38.681C30.9552 38.8793 30.9865 38.9127 31.1849 38.9691C31.8051 39.1362 32.8471 39.18 34.0374 39.084V39.0861ZM18.8999 31.7293C20.9881 31.1321 23.7195 29.355 25.9518 27.1415C26.6827 26.4148 26.7662 26.3124 26.8643 25.993L26.998 25.5774C27.0126 25.544 26.881 25.4834 26.7098 25.4417C26.2588 25.3331 25.9225 25.0783 25.9184 24.8403C25.9184 24.7024 25.8348 24.5646 25.6051 24.3078C25.2146 23.8734 25.1186 23.6855 25.0768 23.2699L25.0434 22.94L24.5924 22.61C24.3334 22.4221 23.4146 21.9168 22.4457 21.4302C21.7071 21.0689 20.9833 20.6781 20.276 20.2587C19.4616 19.7074 18.9124 19.0559 18.6054 18.2812C18.5449 18.1225 18.4739 17.993 18.4488 17.993C18.3799 17.993 16.5485 19.768 15.7634 20.597C13.8339 22.6372 12.4995 24.408 11.6621 26.0472C11.4533 26.4544 11.2236 26.9347 11.1568 27.1143L11.0315 27.4422L11.1839 27.9851C11.2674 28.2837 11.4554 28.764 11.6016 29.0501C12.1153 30.0608 12.7313 30.6726 13.7399 31.1696C14.8258 31.7063 15.7863 31.8922 17.3943 31.8734C18.263 31.8629 18.5115 31.842 18.8999 31.7293ZM2.41758 24.5813C3.78954 23.366 5.68146 22.0337 8.00147 20.6513C9.5196 19.7471 15.3791 16.8152 18.0792 15.6103C18.5678 15.3911 19.0106 15.1906 19.0607 15.1614C19.1087 15.1342 19.2507 14.7855 19.376 14.3908C19.9523 12.5762 20.2363 12.217 21.2721 11.9831C21.4036 11.9539 21.435 11.9121 21.435 11.7764C21.435 11.5467 21.5979 10.9954 21.7378 10.7511C21.8422 10.5631 21.8443 10.5527 21.7482 10.5798C21.6918 10.5986 21.3514 10.6968 20.9902 10.8012C16.0202 12.2358 11.6726 14.1423 7.91794 16.5271C3.90857 19.0747 1.60735 22.1235 0.937033 25.7758L0.886915 26.0472L1.37138 25.5649C1.63659 25.2997 2.10852 24.8549 2.41758 24.5813ZM39.331 25.2704C39.7278 25.0658 40.348 24.1261 40.5777 23.3869C40.6461 23.1246 40.7764 22.8826 40.9577 22.681C41.5675 22.0128 42.0666 20.7912 42.0686 19.958C42.0686 18.6633 41.3399 18.1642 40.2665 18.7218C40.1329 18.7907 40.0138 18.8366 40.0013 18.822C39.9408 18.7615 40.2456 18.467 40.6069 18.2373C41.0934 17.9241 41.1853 17.7361 41.1853 17.0554C41.1853 16.4895 41.0412 16.0259 40.7155 15.5247C40.5693 15.3055 40.5108 15.1551 40.5338 15.0695L40.6842 14.5182C40.8846 13.7936 40.8115 12.9646 40.5004 12.4362C40.0264 11.6323 39.4438 11.2397 38.6335 11.1791L38.1637 11.1436L38.4435 11.4506C39.2621 12.3465 39.6609 13.4616 39.5043 14.4159C39.4229 14.9003 39.3435 15.0006 38.8716 15.1927L38.6001 15.3034L38.6314 15.6772C38.6857 16.2932 38.5813 16.738 38.1887 17.567C37.9945 17.9805 37.8463 18.3522 37.8609 18.3918C37.9131 18.5318 38.4456 18.799 38.8695 18.9014L39.2871 19.0016L39.0261 19.0851C38.6899 19.1958 38.6126 19.3482 38.6106 19.9142C38.6106 20.4258 38.6836 20.6367 39.0637 21.2005C39.2308 21.4469 39.3456 21.6954 39.3644 21.8437C39.3957 22.0755 39.3853 22.0901 39.1973 22.159C38.9857 22.216 38.7688 22.251 38.55 22.2634C37.7836 22.3114 37.7252 22.3323 37.3848 22.6602C37.0715 22.9588 37.0653 22.9755 37.0653 23.3012C37.0653 23.7502 37.2323 24.6481 37.3409 24.7713C37.4746 24.9238 38.2514 25.3038 38.5521 25.3623C38.8144 25.4251 39.0905 25.3926 39.331 25.2704ZM28.0337 24.6565C28.5328 24.266 28.9212 23.8755 29.1447 23.5393C29.2804 23.3347 29.2888 23.295 29.2198 23.1279C29.1113 22.8627 28.3616 22.1882 27.9439 21.9857C27.6671 21.8591 27.3729 21.7747 27.0711 21.7351L26.5574 21.6641L26.2358 21.2631C25.5801 20.4487 25.2126 19.816 24.6863 18.586C24.2353 17.5378 23.8322 16.9259 23.1974 16.3266C22.9364 16.0802 22.7443 15.8776 22.7673 15.8776C22.7923 15.8776 23.1035 16.0301 23.4626 16.218C24.064 16.5333 24.1329 16.5563 24.4044 16.5229C25.3754 16.4059 26.2274 15.2888 26.5427 13.7247C26.6325 13.2778 26.808 12.8288 26.998 12.5615C27.0063 12.5511 27.378 12.8017 27.8228 13.1191C28.9379 13.9126 29.1843 14.0296 29.8171 14.0546C30.2389 14.0713 30.4728 14.0379 31.2204 13.8583C32.8178 13.4699 34.549 13.3112 35.6056 13.4553C36.2008 13.5367 37.0507 13.7957 37.6938 14.0943C38.3224 14.3866 38.4435 14.4033 38.6481 14.2238C38.8152 14.0776 38.8173 14.0567 38.8152 13.5096C38.811 12.7035 38.5145 11.8307 38.0634 11.3107C37.8337 11.0413 37.1968 10.6007 36.5599 10.2645C36.3304 10.1441 36.1028 10.0202 35.8771 9.8928C35.5806 9.71948 35.2318 9.74036 34.3067 9.98468C33.2313 10.2666 32.9452 10.2624 31.7111 9.94709C30.6691 9.6798 30.6002 9.67562 29.5769 9.83642C29.0319 9.92203 27.6599 9.87192 27.2005 9.7508C26.9715 9.68757 26.7451 9.61512 26.5219 9.53363C26.1251 9.38536 25.4318 9.3603 24.8054 9.47098C23.5524 9.69442 22.6044 10.3689 22.2619 11.2877C22.0865 11.7555 22.1095 11.9748 22.3496 12.1251C22.7192 12.359 23.2183 13.0042 23.2183 13.2527C23.2183 13.2736 23.1014 13.1671 22.9573 13.0168C22.6106 12.6534 22.2891 12.4926 21.9132 12.4926C21.6701 12.4981 21.4334 12.5718 21.2303 12.7055C21.0271 12.8392 20.8658 13.0274 20.7647 13.2486C20.6554 13.5354 20.5627 13.8282 20.4869 14.1256C20.2572 14.9651 20.0567 15.4036 19.6266 15.9883C19.2382 16.5166 19.186 16.7526 19.3217 17.3477C19.6642 18.8492 20.2572 19.4589 22.7443 20.8685C24.0494 21.6077 24.7239 22.0232 25.2126 22.3908C25.5863 22.6685 25.5968 22.6831 25.5634 22.8982C25.4861 23.3848 25.7973 23.9214 26.4112 24.3495C26.5678 24.4581 26.666 24.573 26.666 24.6481C26.666 24.7985 27.0752 25.0031 27.3822 25.0031C27.5493 25.0031 27.685 24.9321 28.0358 24.6565H28.0337ZM38.0885 21.9126C39.0366 21.9397 39.0888 21.8729 38.5792 21.284C38.0488 20.668 37.9047 20.1731 38.0989 19.626L38.1762 19.413L37.8442 19.2501C37.7347 19.1914 37.6209 19.1411 37.5038 19.0997C37.4445 19.3144 37.3895 19.5302 37.3388 19.7471C37.2177 20.2483 37.0674 21.5346 37.0653 22.0859C37.0653 22.1339 37.1446 22.113 37.2845 22.0274C37.4767 21.9126 37.5769 21.898 38.0885 21.9126ZM34.9186 21.8604C35.4887 21.829 36.0796 21.7852 36.2342 21.7643L36.514 21.7267L36.5495 20.7829C36.5975 19.4464 36.7896 18.657 37.3702 17.3958C37.7836 16.4978 37.9569 15.7106 37.8713 15.128C37.8337 14.8732 37.8191 14.8565 37.4787 14.7082C36.8506 14.4592 36.1963 14.282 35.5283 14.1799C34.881 14.0859 32.9933 14.1402 32.2812 14.2739C31.9888 14.3282 31.4521 14.4409 31.0909 14.5266C30.2013 14.7354 29.7294 14.7082 29.0528 14.4117C28.3846 14.1173 27.9586 13.8521 27.5555 13.4762C27.2402 13.1817 27.211 13.1671 27.1254 13.2653C27.0627 13.3384 27.0272 13.5576 27.0063 14.0337C26.9771 14.7583 26.8685 15.1405 26.5469 15.6563C26.475 15.7608 26.4148 15.8728 26.3673 15.9904C26.3673 16.0155 26.6158 16.2953 26.9186 16.6085C27.9606 17.6944 28.4723 17.9742 29.295 17.9116C29.5665 17.8907 29.7544 17.899 29.7544 17.9324C29.7544 17.993 29.224 18.4127 29.0006 18.5297C28.9003 18.5819 28.8753 18.6403 28.892 18.7656L29.0173 19.6176C29.0925 20.1104 29.1509 20.3339 29.2261 20.4007C29.4203 20.5678 30.431 21.0898 31.0637 21.3446C31.9011 21.685 32.3522 21.8061 32.9933 21.8604C33.7722 21.9251 33.7889 21.9251 34.9186 21.8604ZM28.1736 20.9687C28.1904 20.9374 28.1277 20.4675 28.0275 19.9204C27.8959 19.177 27.8228 18.9076 27.7414 18.8387C27.6787 18.7886 27.3801 18.5714 27.0752 18.3563C26.6817 18.0659 26.3072 17.7506 25.9539 17.4125L25.388 16.8612L25.0914 17.0178L24.7699 17.1911C24.7977 17.3191 24.8427 17.4427 24.9035 17.5586C24.987 17.7528 25.1666 18.2331 25.3003 18.6236C25.6448 19.6448 25.9079 20.1334 26.5866 21.0209L26.8455 21.3571L27.3258 21.4323C27.5889 21.474 27.8625 21.5283 27.9335 21.5555C28.0504 21.5993 28.0651 21.5805 28.1006 21.3153C28.1111 21.1975 28.135 21.0812 28.1716 20.9687H28.1736ZM38.5061 10.82C38.9238 10.7803 38.9948 10.7156 38.8131 10.5318C38.7045 10.4211 38.4393 10.4086 38.2284 10.5067C38.0864 10.5715 38.0572 10.5569 37.8379 10.3188C37.6082 10.064 37.5957 10.0578 37.3075 10.0933C37.0465 10.1246 37.0068 10.1142 36.9734 10.0077C36.8698 9.83418 36.7434 9.67545 36.5975 9.53571C36.4129 9.32366 36.1802 9.15896 35.9188 9.05542C35.4114 8.86331 35.1295 8.88419 34.6471 9.14939C33.2543 9.91159 33.3107 9.90324 31.9679 9.56077C30.7087 9.23919 29.767 8.91969 29.4683 8.71087C29.2178 8.53755 28.6769 8.35587 28.23 8.29322C27.8959 8.24728 27.6787 8.32037 27.3613 8.58558L27.1943 8.7234L27.3446 8.99069C27.5576 9.36866 27.5367 9.38954 27.2152 9.11598C26.8748 8.82363 26.4697 8.62734 26.2024 8.62525C26.0165 8.62525 25.4611 8.8654 25.3942 8.97607C25.3754 9.00531 25.5467 9.04498 25.7722 9.06587C26.0123 9.08675 26.3381 9.1661 26.5574 9.26007C27.1254 9.5023 27.4219 9.58165 27.9439 9.63595C28.514 9.69024 29.554 9.62551 29.673 9.52527C29.7335 9.47307 29.9131 9.46471 30.2911 9.49395C30.7881 9.53154 30.9948 9.57748 32.1768 9.89698C32.8617 10.0849 33.342 10.0703 34.1585 9.84268C34.5344 9.73827 35.0063 9.63386 35.2047 9.61298C35.5388 9.57748 35.6056 9.5921 36.1235 9.82806C36.9588 10.2039 37.3973 10.4462 37.6437 10.6634C37.888 10.8722 37.9152 10.8784 38.5061 10.8221V10.82ZM33.8536 9.39163L34.3506 9.13269L34.3402 8.62107C34.332 8.27624 34.3167 7.93161 34.2942 7.58741L34.2587 7.06327L33.7617 7.4475C33.4673 7.6772 33.1812 7.84843 33.0538 7.87141C32.6967 7.94032 30.9322 7.87141 30.7651 7.7837C30.5477 7.62085 30.3444 7.43992 30.1575 7.24285L29.698 6.78344L29.6918 7.05491C29.6918 7.20109 29.6688 7.45585 29.6417 7.61455C29.5957 7.90273 29.5999 7.91108 29.9131 8.30993C30.0885 8.53337 30.2305 8.73175 30.2305 8.75263C30.2305 8.91134 32.586 9.64221 33.1165 9.65057C33.2856 9.65057 33.5007 9.57539 33.8536 9.39163ZM32.9097 7.5352C33.4986 7.42244 33.7868 6.99644 34.0019 5.92101C34.2316 4.76414 34.3485 2.9453 34.2378 2.16849C34.1397 1.47102 33.3629 1.1557 31.8656 1.20582C30.9384 1.23714 30.5542 1.32902 30.2389 1.59631C30.0426 1.76337 30.0384 1.77799 29.9528 2.55063C29.7858 4.03535 30.028 6.15071 30.454 6.94632C30.6565 7.32847 30.8382 7.46838 31.2162 7.53103C31.6401 7.60411 32.5422 7.6062 32.9097 7.5352Z" fill="#687759"/>
</svg>
