<svg width="60" height="61" viewBox="0 0 60 61" fill="none" xmlns="http://www.w3.org/2000/svg">
<path d="M35 28.625C35 26.2088 36.9588 24.25 39.375 24.25H43.125C44.1605 24.25 45 25.0895 45 26.125C45 27.1605 44.1605 28 43.125 28H39.375C39.0298 28 38.75 28.2798 38.75 28.625V32.375C38.75 32.7202 39.0298 33 39.375 33H40.625C43.0412 33 45 34.9588 45 37.375V41.125C45 43.5412 43.0412 45.5 40.625 45.5H36.875C35.8395 45.5 35 44.6605 35 43.625C35 42.5895 35.8395 41.75 36.875 41.75H40.625C40.9702 41.75 41.25 41.4702 41.25 41.125V37.375C41.25 37.0298 40.9702 36.75 40.625 36.75H39.375C36.9588 36.75 35 34.7912 35 32.375V28.625Z" fill="#687759"/>
<path d="M31.875 26.125C31.875 25.0895 31.0355 24.25 30 24.25C28.9645 24.25 28.125 25.0895 28.125 26.125V41.125C28.125 41.4702 27.8452 41.75 27.5 41.75H24.375C23.3395 41.75 22.5 42.5895 22.5 43.625C22.5 44.6605 23.3395 45.5 24.375 45.5H27.5C29.9162 45.5 31.875 43.5412 31.875 41.125V26.125Z" fill="#687759"/>
<path d="M7.5 16.125C7.5 11.6377 11.1377 8 15.625 8H44.375C48.8622 8 52.5 11.6377 52.5 16.125V44.875C52.5 49.3622 48.8622 53 44.375 53H15.625C11.1377 53 7.5 49.3622 7.5 44.875V16.125ZM15.625 11.75C13.2088 11.75 11.25 13.7088 11.25 16.125V44.875C11.25 47.2912 13.2088 49.25 15.625 49.25H44.375C46.7912 49.25 48.75 47.2912 48.75 44.875V16.125C48.75 13.7088 46.7912 11.75 44.375 11.75H15.625Z" fill="#687759"/>
</svg>
