<svg width="54" height="50" viewBox="0 0 54 50" fill="none" xmlns="http://www.w3.org/2000/svg">
<path d="M53.2318 0L53.0553 0.0860396C53.0553 0.0860396 42.9887 4.8844 34.8678 5.93673C30.7777 6.4662 24.8189 6.99788 19.5021 7.30454C17.1117 7.45007 14.718 7.53614 12.3233 7.56265C10.3003 7.57368 8.72728 7.49206 8.02131 7.31998C6.22462 6.89198 4.45629 6.35264 2.72657 5.70508L2.17062 5.48447L2.93395 8.07007L0.904297 9.85484L1.45142 10.8189L2.42212 10.8917L4.74298 11.1807L5.10038 12.3147L6.50128 12.4404L7.20283 14.8187L7.4058 14.8319C7.4058 14.8319 10.3576 15.0856 11.293 15.0856C12.0983 15.0856 13.3447 14.9951 13.658 14.9753L13.7109 15.8489L14.3441 15.9681V16.663L12.5814 18.2293L12.9256 18.2911C12.6167 18.3132 12.4248 18.3308 11.8225 18.3573C10.8761 18.3948 9.76196 18.4014 9.1685 18.3176C7.8757 18.1279 7.60435 18.1279 7.60435 18.1279H7.4786L7.20945 18.4147L7.10797 19.3986H7.4433L7.56464 21.8496L14.0353 21.6003L13.583 29.7233L13.5389 30.4889L8.5927 30.2087L8.54858 28.5298H9.73548L9.86123 27.6032L10.8849 27.3694L11.3769 26.6811L6.71969 25.5559L2.95821 26.6723L3.98407 27.5282H4.35029L4.40544 28.2651L5.49528 28.3269V30.0101L4.14733 30.3565L4.56649 31.2478L4.79814 31.3978V33.2179H5.55484V40.4893L4.30617 40.679L4.52237 43.4301L5.25922 43.5537L5.13788 48.7204L9.11556 48.7932L8.40959 43.7125L12.7822 43.6066L12.4755 46.0047L11.924 48.2814L17.6776 48.3542L17.7372 43.3242L20.6537 43.0617L20.4948 45.9142L20.3558 48.0983H23.9585L23.8416 43.0242L24.2298 43.0837L24.3776 40.0128H23.8416L23.7136 39.2627L23.4246 36.4168L23.5327 33.4076H24.1835V30.7999L23.3805 30.8595L23.4687 29.0814L24.4196 28.9865L24.4681 28.2099L24.8476 28.1548L25.9727 27.2966L21.9421 26.4693L18.1718 27.3054L18.8005 28.3401L19.3278 28.296L19.4469 28.2871L19.5219 29.2623L20.4264 29.2181L20.4353 30.7051L17.0687 30.6279L17.1856 28.6931L17.3158 26.6502V23.9741L17.4217 21.4327L25.1101 21.04L34.2788 20.5105L34.3516 21.9974L34.0163 26.2972L33.8773 30.0322L30.9652 29.9815L30.9519 27.7356L32.2183 27.6893L32.28 26.8664L32.8757 26.7759L32.8492 26.6502L33.1846 26.6281L33.8243 25.7721L29.39 24.7331L25.0064 25.6729L25.5756 26.6656L25.8844 26.6436V26.8399H26.4272V27.7268L27.5832 27.7444L27.5699 29.6329H26.4073L26.3764 30.747L26.789 30.7955L26.7426 32.9531L27.6118 32.9973L27.5148 40.9725L26.3588 41.2107L26.3941 42.1439H26.7823V44.317H27.4199L27.2655 46.9754L27.0184 49.8742L31.8057 50L31.6535 47.4144L31.3491 45.5436L31.3005 44.2353L34.2237 44.1824L34.1332 46.393L34.1156 49.3271L36.3945 49.508L39.1566 49.3977L40.3325 49.0514L39.7809 47.3747L39.664 45.1685L39.4875 43.8824L42.2077 43.7831L42.0819 45.42L42.0687 48.7624L43.6968 48.9146L45.0889 48.8793L46.0067 48.5925L45.5941 45.4509L45.486 43.5492L46.0375 43.4897L46.0508 41.5152L46.2273 41.4777L46.1677 40.529H45.4992L45.3911 39.3664L45.3404 33.4275L45.8302 33.4142V31.4243L46.042 31.4552V30.4381L45.3051 30.3786L45.3183 28.5342L46.5758 28.4217L46.503 27.6231L47.0766 27.5768L47.0237 27.3187L48.3033 26.6789L43.7674 25.7677L39.6177 26.6061L40.1295 27.5591L40.6215 27.515L40.6524 27.6849H41.1002L41.1245 28.6247L42.3312 28.6115L42.4084 30.3168L38.722 30.2903L38.2565 27.076L37.8638 25.2537L37.5439 22.0129L37.7094 20.3671L46.1964 19.7207L46.2229 16.8174L46.6663 16.7071L46.6156 15.8688L46.0883 15.5643H46.0067L45.2191 15.6746L43.4696 15.9305C42.2767 16.1051 41.0817 16.264 39.8846 16.4071L39.4632 16.4512L39.4324 16.0585L37.7005 15.154L37.7138 14.5473L38.3116 14.5297L38.3558 13.0471C38.5543 13.0339 39.1323 12.9942 40.0567 12.9103C41.1245 12.8111 42.3511 12.6787 43.0593 12.5132C44.3763 12.2044 46.2626 11.8933 46.2626 11.8933L46.4302 11.8668L47.3303 9.42243L49.1063 8.90619L49.2519 8.50026L53.1788 7.41484L53.8539 6.85889L52.2721 3.40849L52.3758 2.88784L53.1347 2.49073L53.7899 0.49197L53.2318 0ZM33.6126 13.3736L33.5905 14.5341L34.4884 14.5716L34.4531 15.2775L32.7124 16.4203L32.5227 16.9895L28.4193 17.188L28.4414 16.7821L28.6884 16.3828L28.7105 16.0453L28.7127 15.5423L28.8605 15.1981L28.9289 14.8451V14.6422L29.1054 13.9296L33.6126 13.3736ZM22.1825 14.3907L22.0877 14.9731L22.5267 15.4893L22.4958 16.3431L22.8841 16.9388L22.7804 17.6624L22.8356 17.7396L18.7608 17.9028L18.8049 17.5675L17.3643 16.7865L17.3158 16.0254L17.9578 15.9945L18.0195 14.6753L22.1825 14.3907ZM31.0402 33.1429L33.8155 33.3238L33.7052 37.5993L34.1089 40.9989L31.1527 40.8953L31.0424 33.1429H31.0402ZM8.48019 33.3282L13.2455 33.5753L12.8175 36.4058V39.095L13.1197 40.2489L8.50887 40.4651L8.48019 33.3282ZM42.404 33.3502V40.5334L39.5559 40.7408L39.4434 36.9396L39.0948 33.4275L42.404 33.3502ZM17.0444 33.5179L20.4375 33.5311L20.475 40.1408L17.3202 40.1981L17.1525 38.1508L17.1393 35.841L17.0444 33.5179Z" fill="#687759"/>
</svg>
