<svg width="42" height="51" viewBox="0 0 42 51" fill="none" xmlns="http://www.w3.org/2000/svg">
<path d="M21.9565 0.5C21.6336 0.5 21.3003 0.516665 20.9587 0.543747C12.153 1.23745 14.4883 10.5576 14.355 13.6636C14.1946 15.9406 13.73 17.7342 12.1655 19.9569C10.3219 22.1464 7.7346 25.6857 6.50761 29.375C5.92848 31.1082 5.6535 32.8831 5.90973 34.5601C5.81396 34.6367 5.73521 34.7325 5.6785 34.8413C5.13687 35.3996 4.74315 36.0933 4.29943 36.5891C3.88488 37.0036 3.28909 37.1453 2.63914 37.4224C1.9871 37.7057 1.2684 37.9827 0.839265 38.841C0.651778 39.2326 0.555952 39.6597 0.564284 40.093C0.564284 40.5075 0.620531 40.9283 0.67886 41.2096C0.799684 42.0408 0.920509 42.7282 0.760104 43.2303C0.243474 44.6468 0.178896 45.6176 0.54137 46.3238C0.903844 47.0196 1.65587 47.3008 2.49748 47.5758C4.18694 47.9924 6.47636 47.857 8.27831 48.8236C10.2073 49.7965 12.1655 50.2214 13.7279 49.8027C14.8237 49.5631 15.7486 48.8382 16.2444 47.8341C17.4672 47.8279 18.8067 47.2737 20.9524 47.1383C22.4086 47.0175 24.2313 47.6945 26.3229 47.5529C26.3749 47.8341 26.4541 47.9674 26.5603 48.2487L26.5666 48.2549C27.3811 49.8756 28.8852 50.6131 30.4913 50.486C32.0974 50.361 33.8077 49.3694 35.193 47.7654C36.5075 46.1717 38.699 45.5072 40.1469 44.6343C40.8718 44.2198 41.4572 43.6573 41.4988 42.8574C41.5468 42.0241 41.0843 41.1658 40.0115 39.9888V39.7868L40.0052 39.7805C39.6511 39.3639 39.4844 38.666 39.3011 37.8515C39.124 37.0161 38.9219 36.2141 38.2762 35.6725H38.2699C38.147 35.56 38.0137 35.5329 37.8783 35.3912C37.7618 35.3099 37.6244 35.2636 37.4825 35.2579C38.3803 32.5956 38.0324 29.9458 37.1221 27.5626C36.0117 24.6254 34.0702 22.0672 32.5912 20.3069C30.9329 18.2133 29.3081 16.2301 29.3393 13.2887C29.3956 8.80565 29.833 0.512499 21.9565 0.5ZM23.0585 7.59324H23.0856C23.5293 7.59324 23.9105 7.7224 24.3022 8.00571C24.7001 8.28694 24.9896 8.69733 25.2167 9.11605C25.4354 9.65559 25.5458 10.0722 25.5625 10.6243C25.5625 10.5826 25.575 10.5409 25.575 10.5014V10.718C25.5704 10.7038 25.5676 10.6891 25.5667 10.6743L25.5583 10.6243C25.5541 11.1305 25.4478 11.6308 25.2458 12.095C25.1486 12.3562 24.9974 12.594 24.8021 12.7929C24.7431 12.7595 24.6818 12.7303 24.6188 12.7054C24.4001 12.6116 24.2043 12.572 24.0251 12.4283C23.8773 12.3693 23.7247 12.3233 23.5689 12.2908C23.671 12.1679 23.8709 12.0138 23.948 11.8783C24.0584 11.6117 24.1188 11.3284 24.1313 11.0409V11.0013C24.1361 10.7184 24.0931 10.4367 24.0043 10.1681C23.9105 9.88683 23.7939 9.74934 23.623 9.47227C23.4481 9.33478 23.2752 9.19729 23.0668 9.19729H23.0335C22.8398 9.19729 22.6669 9.25979 22.4877 9.47227C22.2899 9.66521 22.1431 9.90431 22.0607 10.1681C21.95 10.4327 21.8866 10.7148 21.8732 11.0013V11.0409C21.8773 11.2263 21.8898 11.4138 21.9148 11.5971C21.5128 11.4575 21.0024 11.3159 20.6503 11.1763C20.6294 11.039 20.6169 10.9006 20.6128 10.7618V10.7201C20.5962 10.1695 20.7029 9.62212 20.9253 9.11813C21.0961 8.66191 21.4086 8.27236 21.8211 8.00779C22.1775 7.73863 22.6119 7.59309 23.0585 7.59324ZM16.8881 7.71615H16.9631C17.2589 7.71615 17.5256 7.81614 17.7943 7.99738C18.0984 8.26611 18.3443 8.59734 18.5109 8.96606C18.6984 9.38061 18.8046 9.80142 18.8296 10.3555V10.3639C18.8442 10.643 18.8421 10.7826 18.8255 10.918V11.0847C18.763 11.0992 18.7088 11.1222 18.6526 11.1347C18.3359 11.2492 18.0818 11.4159 17.8339 11.5513C17.8589 11.3659 17.861 11.1784 17.8401 10.9951V10.9638C17.8151 10.6868 17.7589 10.5493 17.6693 10.2701C17.6044 10.0578 17.4852 9.86611 17.3235 9.71392C17.2722 9.66724 17.212 9.63137 17.1465 9.60847C17.081 9.58556 17.0115 9.57608 16.9423 9.5806H16.8985C16.7506 9.5931 16.6277 9.66601 16.5111 9.85558C16.3782 10.0169 16.2917 10.2113 16.2611 10.418C16.2045 10.6433 16.1883 10.8767 16.2132 11.1076V11.1367C16.2382 11.418 16.2902 11.5555 16.3819 11.8325C16.4756 12.1117 16.584 12.2492 16.7256 12.3908C16.7485 12.4096 16.7694 12.4283 16.7965 12.4408C16.6506 12.5596 16.5527 12.5866 16.4298 12.7241C16.3518 12.793 16.2581 12.8416 16.1569 12.8658C15.9404 12.605 15.7486 12.3247 15.584 12.0283C15.3871 11.5906 15.2774 11.1186 15.2611 10.6389C15.2266 10.1686 15.2832 9.6961 15.4278 9.24729C15.5425 8.83798 15.7436 8.45797 16.0173 8.13279C16.284 7.85572 16.559 7.71615 16.8881 7.71615ZM19.7442 11.2701C20.4337 11.2701 21.269 11.4055 22.2752 12.1012C22.8856 12.5179 23.3647 12.6616 24.4688 13.0762H24.4751C25.0063 13.3595 25.3188 13.6303 25.4708 13.9074V13.6345C25.5456 13.7859 25.5872 13.9516 25.593 14.1204C25.5987 14.2893 25.5684 14.4574 25.5042 14.6136C25.2479 15.2614 24.4292 15.9551 23.2877 16.3697V16.3739C22.7294 16.6551 22.244 17.0676 21.6732 17.3425C21.0982 17.6238 20.4483 17.9508 19.565 17.8988C19.2477 17.9152 18.9303 17.8677 18.6317 17.7592C18.401 17.6336 18.1771 17.496 17.961 17.3467C17.5547 17.0655 17.2048 16.6551 16.686 16.378V16.3676H16.6756C15.8424 15.8551 15.3924 15.301 15.2466 14.8865C15.1028 14.3282 15.2361 13.9095 15.6486 13.6366C16.1153 13.3553 16.4402 13.072 16.6548 12.9366C16.8714 12.7825 16.9527 12.7241 17.0214 12.6637H17.0256V12.6575C17.3777 12.2367 17.9339 11.6804 18.7734 11.4055C19.063 11.3305 19.3859 11.2701 19.7442 11.2701ZM25.575 15.7343C26.3229 18.6862 28.0686 22.9734 29.1914 25.0524C29.7872 26.1648 30.9725 28.5084 31.4871 31.352C31.812 31.3415 32.1724 31.3894 32.5557 31.4853C33.9015 28.0043 31.4183 24.2629 30.2872 23.2234C29.8268 22.8046 29.8039 22.5255 30.0309 22.5255C31.2579 23.6379 32.8745 25.8003 33.4598 28.2688C33.7286 29.3833 33.7911 30.5687 33.5036 31.7478C33.6432 31.8061 33.7848 31.8748 33.9306 31.8873C36.0805 32.9998 36.8742 33.8414 36.493 35.0892V34.9996C36.3659 34.9934 36.243 34.9996 36.1159 34.9996H36.0847C36.3992 34.0268 35.7055 33.281 33.8661 32.4498C31.9599 31.6165 30.4371 31.7498 30.1767 33.4185C30.1622 33.508 30.1517 33.556 30.1413 33.6997C29.9997 33.7476 29.8518 33.8101 29.7059 33.833C28.8102 34.3913 28.3269 35.2267 28.054 36.3058C27.7832 37.4161 27.6998 38.7139 27.6269 40.1992V40.2055C27.5832 40.9013 27.2707 41.9512 26.9624 43.0199C23.8376 45.253 19.5046 46.2238 15.8194 43.7156C15.5883 43.3117 15.3069 42.9386 14.982 42.6053C14.8269 42.346 14.6338 42.1115 14.4091 41.9095C14.7883 41.9095 15.1132 41.8491 15.3778 41.77C15.6774 41.631 15.9117 41.3817 16.0319 41.0742C16.2569 40.518 16.0319 39.6222 15.3132 38.6514C14.5945 37.6786 13.3738 36.5787 11.5885 35.4829C10.2761 34.6517 9.53447 33.6705 9.19283 32.5748C8.84911 31.4624 8.89494 30.3145 9.16158 29.1479C9.67196 26.9189 10.9802 24.7524 11.8156 23.3921C12.0385 23.2567 11.8926 23.6733 10.9656 25.4211C10.1407 26.9856 8.58871 30.6228 10.7115 33.4497C10.7916 31.3872 11.2484 29.3567 12.0593 27.4585C13.2342 24.7962 15.6903 20.159 15.884 16.4843C15.984 16.5593 16.3361 16.7655 16.4861 16.9051C16.9402 17.1821 17.2777 17.5988 17.7151 17.8738C18.1547 18.2925 18.7088 18.5716 19.54 18.5716C19.6213 18.5779 19.6962 18.5841 19.7712 18.5841C20.6274 18.5841 21.2899 18.305 21.8461 18.0258C22.4502 17.7467 22.9314 17.33 23.3876 17.1926H23.3981C24.3709 16.9113 25.1396 16.3551 25.575 15.7343ZM30.1288 34.3955C30.2059 35.6475 30.8434 36.989 31.9662 37.264C33.1911 37.5432 34.9535 36.5703 35.6972 35.6704L36.1367 35.6516C36.7929 35.635 37.3387 35.6725 37.9012 36.2079L37.9074 36.2141C38.3407 36.6287 38.5428 37.3203 38.722 38.039C38.899 38.8743 39.0428 39.6639 39.574 40.2596C40.5864 41.3575 40.9176 42.147 40.8989 42.6345L40.9051 42.622V42.6595L40.8989 42.6345C40.8676 43.1803 40.5135 43.4594 39.8615 43.874C38.5491 44.7093 36.2242 45.3572 34.7431 47.1446C33.4557 48.6799 31.887 49.5173 30.5017 49.6256C29.1185 49.736 27.9248 49.209 27.2228 47.7549L27.2124 47.7487C26.7749 46.9133 26.9624 45.6134 27.329 44.2281C27.6957 42.8365 28.2206 41.4262 28.2935 40.2742C28.3706 38.7868 28.4519 37.4932 28.6998 36.4953C28.9497 35.5267 29.3414 34.835 30.0351 34.4455L30.1288 34.3997V34.3955ZM7.5992 34.4976H7.62003C7.73044 34.4976 7.83876 34.508 7.94709 34.5267C8.73036 34.6413 9.41782 35.2204 10.0782 36.0933L11.9739 39.5597L11.9801 39.5659C12.4863 40.6763 13.5509 41.7825 14.457 42.9782C15.3611 44.2239 16.0611 45.3343 15.9757 46.2488V46.2613C15.8569 47.8112 14.9778 48.6528 13.6321 48.9569C12.2884 49.2382 10.4657 48.9611 8.64287 47.9903C6.62635 46.8738 4.23069 47.0133 2.69122 46.7363C1.92252 46.5988 1.41839 46.3175 1.18507 45.9009C0.95384 45.4864 0.949673 44.6489 1.4413 43.3386V43.3323L1.44547 43.3261C1.6892 42.6303 1.50797 41.7575 1.38923 40.995C1.27465 40.1597 1.21632 39.518 1.4788 39.0368C1.81211 38.341 2.30374 38.2056 2.91412 37.9265C3.52865 37.6452 4.24944 37.5057 4.82231 36.9495H4.82648V36.9432C5.35977 36.3849 5.75349 35.6912 6.21804 35.1975C6.61385 34.7788 7.00966 34.4976 7.5992 34.4976ZM22.5127 15.5947C21.6065 16.0135 20.5441 16.7093 19.4129 16.7093C18.2838 16.7093 17.3922 16.153 16.7485 15.7385C16.4256 15.4593 16.1652 15.1802 15.9694 15.0406C15.6278 14.7615 15.6695 14.3448 15.8153 14.3448C16.0423 14.3782 16.084 14.6261 16.2298 14.7636C16.4298 14.901 16.6777 15.1781 16.9819 15.4573C17.5881 15.8739 18.3984 16.4301 19.4108 16.4301C20.4212 16.4301 21.6044 15.8739 22.3231 15.4593C22.7294 15.1781 23.2502 14.7636 23.673 14.4865C23.998 14.2011 23.9834 13.9282 24.2543 13.9282C24.523 13.9615 24.3251 14.2073 23.948 14.6219C23.4859 14.9713 23.0062 15.2968 22.5106 15.5968V15.5947H22.5127ZM20.2587 12.295V12.2492C20.2462 12.2096 20.2858 12.1617 20.3191 12.145C20.4733 12.0554 20.6941 12.0888 20.8607 12.1533C20.992 12.1533 21.1941 12.2929 21.1732 12.4346C21.1607 12.5366 20.9962 12.5721 20.892 12.5721C20.7774 12.5721 20.7003 12.4825 20.5983 12.4304C20.4899 12.3929 20.2941 12.4137 20.2587 12.295ZM19.1109 12.295C19.0692 12.4158 18.8755 12.3971 18.7651 12.4325C18.6672 12.4846 18.5859 12.5741 18.4755 12.5741C18.3693 12.5741 18.2026 12.5346 18.1901 12.4325C18.1714 12.295 18.3734 12.1554 18.5026 12.1554C18.6713 12.0908 18.8859 12.0575 19.0421 12.145C19.0817 12.1637 19.1171 12.2075 19.1046 12.2492V12.2929H19.1109V12.295Z" fill="#687759"/>
</svg>
