<svg width="44" height="51" viewBox="0 0 44 51" fill="none" xmlns="http://www.w3.org/2000/svg">
<path d="M21.6563 0.5L0 13V38L21.6563 50.5L43.3125 38V13L21.6563 0.5ZM34.1563 35.0625C34.1563 36.5312 32.8104 37.75 30.9708 37.75C29.6563 37.75 28.1563 37.2187 27.2188 36.0625L14.7188 21.1854V35.0604C14.7188 36.5625 13.5313 37.7479 12.0646 37.7479H11.9063C10.4042 37.7479 9.21875 36.4979 9.21875 35.0604V15.9375C9.21875 14.4687 10.5313 13.25 12.3438 13.25C13.6896 13.25 15.2188 13.7812 16.1563 14.9375L28.5938 29.8146V15.9375C28.5938 14.4354 29.8438 13.25 31.2813 13.25H31.4375C32.9375 13.25 34.125 14.5 34.125 15.9375V35.0625H34.1563Z" fill="#687759"/>
</svg>
