<svg width="60" height="61" viewBox="0 0 60 61" fill="none" xmlns="http://www.w3.org/2000/svg">
<g clip-path="url(#clip0_141_282)">
<path d="M30 5.12505C29.3183 5.12494 28.6476 5.29692 28.05 5.62505L9.45 16.375C8.85722 16.7231 8.36553 17.2198 8.02354 17.8161C7.68155 18.4124 7.50109 19.0876 7.5 19.775V41.2251C7.50109 41.9125 7.68155 42.5877 8.02354 43.184C8.36553 43.7803 8.85722 44.277 9.45 44.625L14.45 47.4251C15.738 48.2067 17.2185 48.6136 18.725 48.6001C19.4917 48.6584 20.2617 48.5452 20.9792 48.2687C21.6966 47.9921 22.3434 47.5592 22.8726 47.0013C23.4017 46.4434 23.7999 45.7747 24.0382 45.0436C24.2764 44.3125 24.3488 43.5376 24.25 42.775V21.6C24.25 21.5278 24.2358 21.4563 24.2081 21.3896C24.1805 21.3228 24.14 21.2622 24.0889 21.2111C24.0378 21.1601 23.9772 21.1196 23.9105 21.0919C23.8437 21.0643 23.7722 21.05 23.7 21.05H21.25C21.1757 21.0467 21.1015 21.0584 21.0318 21.0845C20.9622 21.1106 20.8986 21.1506 20.8448 21.202C20.7911 21.2534 20.7483 21.3152 20.7191 21.3836C20.6899 21.452 20.6749 21.5257 20.675 21.6V42.775C20.675 44.425 18.975 46.05 16.25 44.675L11.25 41.75C11.1658 41.6906 11.097 41.612 11.0492 41.5207C11.0014 41.4294 10.9759 41.3281 10.975 41.2251V19.775C10.9715 19.6712 10.9949 19.5683 11.0432 19.4762C11.0914 19.3842 11.1626 19.3063 11.25 19.25L29.85 8.52505C29.9336 8.47678 30.0285 8.45136 30.125 8.45136C30.2215 8.45136 30.3164 8.47678 30.4 8.52505L48.875 19.25C48.9624 19.3063 49.0336 19.3842 49.0818 19.4762C49.1301 19.5683 49.1535 19.6712 49.15 19.775V41.2251C49.1491 41.3281 49.1236 41.4294 49.0758 41.5207C49.028 41.612 48.9592 41.6906 48.875 41.75L30.275 52.4751C30.1868 52.5232 30.088 52.5484 29.9875 52.5484C29.887 52.5484 29.7882 52.5232 29.7 52.4751L25 49.6251C24.9173 49.5885 24.8279 49.5697 24.7375 49.5697C24.6471 49.5697 24.5577 49.5885 24.475 49.6251C23.609 50.1846 22.6656 50.6142 21.675 50.9001C21.375 50.9001 20.9 51.1751 21.85 51.7001L28.05 55.3751C28.642 55.7198 29.3149 55.9015 30 55.9015C30.6851 55.9015 31.358 55.7198 31.95 55.3751L50.55 44.65C51.1464 44.2999 51.6405 43.7992 51.9827 43.1981C52.3249 42.5971 52.5033 41.9167 52.5 41.2251V19.775C52.4989 19.0876 52.3185 18.4124 51.9765 17.8161C51.6345 17.2198 51.1428 16.7231 50.55 16.375L31.95 5.62505C31.3537 5.29383 30.6821 5.12164 30 5.12505ZM35 20.5C29.7 20.5 26.525 22.725 26.525 26.475C26.525 30.225 29.675 31.675 34.775 32.175C40.85 32.775 41.325 33.675 41.325 34.875C41.325 36.95 39.65 37.825 35.75 37.825C30.75 37.825 29.75 36.6 29.375 34.15C29.347 34.0243 29.2776 33.9115 29.1778 33.8299C29.0781 33.7483 28.9538 33.7026 28.825 33.7H26.325C26.2539 33.7 26.1835 33.7143 26.1181 33.7423C26.0528 33.7702 25.9937 33.8111 25.9446 33.8625C25.8956 33.914 25.8574 33.9748 25.8326 34.0415C25.8077 34.1081 25.7966 34.179 25.8 34.25C25.8 37.35 27.5 41.1 35.65 41.1C41.525 41.1 44.9 38.775 44.9 34.725C44.9 30.675 42.2 29.7251 36.475 28.8751C30.75 28.0251 30.125 27.7251 30.125 26.3751C30.125 25.0251 30.625 23.8751 34.9 23.8751C38.65 23.8751 40.125 24.7 40.7 27.275C40.7235 27.3963 40.789 27.5055 40.8851 27.5832C40.9811 27.6609 41.1015 27.7023 41.225 27.7H43.725C43.7967 27.7011 43.8676 27.6858 43.9326 27.6555C43.9975 27.6252 44.0547 27.5806 44.1 27.5251C44.1558 27.4765 44.197 27.4133 44.2191 27.3427C44.2411 27.2721 44.2432 27.1968 44.225 27.125C43.9 22.55 40.95 20.5 35 20.5Z" fill="#687759"/>
</g>
<defs>
<clipPath id="clip0_141_282">
<rect width="60" height="60" fill="white" transform="translate(0 0.5)"/>
</clipPath>
</defs>
</svg>
