<svg width="51" height="50" viewBox="0 0 51 50" fill="none" xmlns="http://www.w3.org/2000/svg">
<g clip-path="url(#clip0_141_301)">
<path d="M20.0941 8.33342H23.4274M15.0941 13.3334V5.00008C15.0941 3.15913 16.5865 1.66675 18.4274 1.66675H31.7607C33.6017 1.66675 35.0941 3.15913 35.0941 5.00008V21.6667C35.0941 23.5077 33.6017 25.0001 31.7607 25.0001H18.4274C16.5865 25.0001 15.0941 26.4925 15.0941 28.3334V45.0001C15.0941 46.8411 16.5865 48.3334 18.4274 48.3334H31.7607C33.6017 48.3334 35.0941 46.8411 35.0941 45.0001V36.6667M26.7607 15.0001H5.09408C3.25313 15.0001 1.76074 16.4925 1.76074 18.3334V35.0001C1.76074 36.8411 3.25313 38.3334 5.09408 38.3334H15.0941M23.4274 35.0001H45.0941C46.9351 35.0001 48.4274 33.5077 48.4274 31.6667V15.0001C48.4274 13.1591 46.9351 11.6667 45.0941 11.6667H35.0941M26.7607 41.6667H30.0941" stroke="#687759" stroke-width="4"/>
</g>
<defs>
<clipPath id="clip0_141_301">
<rect width="50" height="50" fill="white" transform="translate(0.0942383)"/>
</clipPath>
</defs>
</svg>
