<svg width="60" height="61" viewBox="0 0 60 61" fill="none" xmlns="http://www.w3.org/2000/svg">
<g clip-path="url(#clip0_141_291)">
<path d="M57.375 30.5001C57.375 27.0001 53.625 23.7501 47.375 21.5001L46.25 21.1251V20.6251C47.625 13.7501 46.625 8.62506 43.5 6.75006C40.375 4.87506 35.75 6.62506 30.75 11.0001L30 11.7501L29.75 11.5001H29.5C24.375 6.75006 19.375 5.12506 16.25 6.87506C13.125 8.62506 12.25 13.5001 13.5 19.8751C13.6315 20.2806 13.7154 20.7001 13.75 21.1251L12.375 21.6251C6.25 23.7501 2.625 27.0001 2.625 30.5001C2.625 34.0001 6.625 37.5001 12.875 39.7501L13.75 40.0001C13.5956 40.4426 13.5112 40.9065 13.5 41.3751C12.25 47.6251 13.375 52.3751 16.25 54.1251C19.125 55.8751 24.375 54.2501 29.375 49.8751L30.125 49.2501L31.125 50.2501C34.625 53.2501 38.125 54.8751 40.875 54.8751C41.845 54.8972 42.8005 54.6366 43.625 54.1251C46.75 52.3751 47.875 47.2501 46.5 40.7501V40.5001C46.446 40.2944 46.4043 40.0857 46.375 39.8751H46.75C53.375 37.5001 57.375 34.1251 57.375 30.5001ZM53.75 30.5001C53.75 32.0001 51 34.6251 45.625 36.3751H45.375C44.7197 34.3643 43.9261 32.4013 43 30.5001C43.875 28.5001 44.625 26.5001 45.25 24.6251L46.25 24.8751C51.25 26.6251 53.75 29.0001 53.75 30.5001ZM33.5 47.5001L32.5 46.7501C33.9313 45.1642 35.267 43.4946 36.5 41.7501L42.875 40.7501C43 41.0001 43 41.2501 43.125 41.3751C43.5704 43.6392 43.6548 45.9596 43.375 48.2501C43.1994 49.3455 42.673 50.3543 41.875 51.1251C40.625 51.8751 37.25 50.8751 33.5 47.5001ZM31.875 42.0001L30.125 44.2501L28.125 42.0001H31.875ZM14.75 24.5001C15.3783 26.5609 16.1725 28.5675 17.125 30.5001C16.1718 32.4753 15.3776 34.5235 14.75 36.6251L14 36.3751C11.8111 35.6842 9.77449 34.581 8 33.1251C7.54052 32.8347 7.14726 32.451 6.84576 31.9987C6.54427 31.5465 6.34129 31.0359 6.25 30.5001C6.25 29.0001 8.75 26.6251 13.5 25.0001L14.75 24.5001ZM28.125 19.0001L30 16.8751L31.875 19.0001H28.125ZM41.875 9.87506C43.25 10.6251 44 14.3751 42.875 19.8751C42.8807 19.9428 42.8726 20.011 42.8511 20.0754C42.8296 20.1399 42.7952 20.1993 42.75 20.2501L36.5 19.2501C35.267 17.5056 33.9313 15.8359 32.5 14.2501L33.25 13.6251C37.25 10.1251 40.5 9.12506 41.875 9.87506ZM21 23.1251L20 24.7501L19.125 26.3751C18.75 25.5001 18.5 24.6251 18.125 23.6251L21 23.1251ZM18.125 37.3751C18.5 36.5001 18.75 35.6251 19.125 34.6251L20 36.2501L21 37.8751L18.125 37.3751ZM39 30.5001C38.3639 31.8705 37.6546 33.2058 36.875 34.5001C36.125 35.8751 35.25 37.1251 34.5 38.3751H25.5C24.625 37.0001 23.75 35.7501 23.125 34.5001C22.3393 33.2093 21.6297 31.8737 21 30.5001C21.6065 29.1151 22.3169 27.7779 23.125 26.5001C23.8432 25.205 24.6362 23.9529 25.5 22.7501C28.4948 22.5002 31.5052 22.5002 34.5 22.7501C35.375 24.0001 36.125 25.2501 36.875 26.5001C37.6831 27.7779 38.3935 29.1151 39 30.5001ZM40 24.7501L39 23.1251L41.875 23.7501C41.5967 24.645 41.2627 25.5217 40.875 26.3751L40 24.7501ZM39 37.8751L40 36.2501L40.875 34.5001L42 37.3751L39 37.8751ZM27.375 14.1251H27.5L23.5 19.1251L17.25 20.1251C17.125 19.7501 17.125 19.5001 17 19.1251C16 14.0001 16.75 10.5001 18 9.87506C18.3319 9.65709 18.7321 9.56816 19.125 9.62506C20.875 9.62506 23.875 10.8751 27.25 13.8751L27.375 14.1251ZM17 42.0001C17.0228 41.6141 17.1072 41.2343 17.25 40.8751L23.625 41.7501C24.8268 43.5179 26.1641 45.1896 27.625 46.7501L27.375 47.0001L27.125 47.2501C25.4208 48.8287 23.4253 50.06 21.25 50.8751C20.7728 51.125 20.25 51.276 19.713 51.319C19.176 51.3619 18.6359 51.296 18.125 51.1251C16.75 50.3751 16 47.0001 17 42.0001Z" fill="#687759"/>
<path d="M30 25C28.9072 24.9751 27.8318 25.2764 26.9111 25.8655C25.9903 26.4545 25.2659 27.3046 24.8304 28.3071C24.3949 29.3097 24.268 30.4193 24.4659 31.4943C24.6638 32.5693 25.1775 33.5609 25.9415 34.3427C26.7054 35.1244 27.685 35.6608 28.7552 35.8833C29.8254 36.1059 30.9376 36.0045 31.9499 35.5922C32.9622 35.1798 33.8286 34.4752 34.4387 33.5682C35.0487 32.6612 35.3747 31.593 35.375 30.5C35.3754 29.0627 34.8131 27.6823 33.8085 26.6544C32.804 25.6265 31.4369 25.0326 30 25Z" fill="#687759"/>
</g>
<defs>
<clipPath id="clip0_141_291">
<rect width="60" height="60" fill="white" transform="translate(0 0.5)"/>
</clipPath>
</defs>
</svg>
