<svg width="94" height="78" viewBox="0 0 94 78" fill="none" xmlns="http://www.w3.org/2000/svg">
<path d="M67.4545 75.6363V67.4545C67.4545 63.1146 65.7305 58.9524 62.6617 55.8836C59.593 52.8148 55.4308 51.0908 51.0909 51.0908H18.3636C14.0237 51.0908 9.86158 52.8148 6.7928 55.8836C3.72402 58.9524 2 63.1146 2 67.4545V75.6363" stroke="#687759" stroke-width="4" stroke-linecap="round" stroke-linejoin="round"/>
<path d="M34.7274 34.7273C43.7648 34.7273 51.091 27.401 51.091 18.3636C51.091 9.32625 43.7648 2 34.7274 2C25.69 2 18.3638 9.32625 18.3638 18.3636C18.3638 27.401 25.69 34.7273 34.7274 34.7273Z" stroke="#687759" stroke-width="4" stroke-linecap="round" stroke-linejoin="round"/>
<path d="M92 75.6364V67.4546C91.9973 63.829 90.7906 60.3069 88.5692 57.4414C86.3479 54.5759 83.2378 52.5292 79.7273 51.6228" stroke="#687759" stroke-width="4" stroke-linecap="round" stroke-linejoin="round"/>
<path d="M63.3635 2.53174C66.8834 3.43297 70.0032 5.48006 72.2311 8.35028C74.4591 11.2205 75.6683 14.7506 75.6683 18.384C75.6683 22.0174 74.4591 25.5475 72.2311 28.4177C70.0032 31.288 66.8834 33.3351 63.3635 34.2363" stroke="#687759" stroke-width="4" stroke-linecap="round" stroke-linejoin="round"/>
</svg>
