<svg width="69" height="92" viewBox="0 0 69 92" fill="none" xmlns="http://www.w3.org/2000/svg">
<path d="M17.7821 58.1648V56.797L16.6302 56.0594C8.67615 50.9664 3.38477 42.0627 3.38477 31.8914C3.38477 15.3896 17.0467 2.12573 34.4785 2.12573C51.9103 2.12573 65.5723 15.3896 65.5723 31.8914C65.5723 41.568 60.3065 50.5221 52.25 56.1106L51.1749 56.8564V58.1648V68.7664C51.1749 69.7583 50.3075 70.8757 48.8758 70.8757H20.0812C18.6495 70.8757 17.7821 69.7583 17.7821 68.7664V58.1648ZM24.8803 89.3132C23.4486 89.3132 22.5812 88.1958 22.5812 87.2039V85.0945H46.3758V87.2039C46.3758 88.1958 45.5084 89.3132 44.0767 89.3132H24.8803Z" stroke="#687759" stroke-width="5"/>
</svg>
