<svg width="96" height="80" viewBox="0 0 96 80" fill="none" xmlns="http://www.w3.org/2000/svg">
<path d="M68.4545 76.6363V68.4545C68.4545 64.1146 66.7305 59.9524 63.6617 56.8836C60.593 53.8148 56.4308 52.0908 52.0909 52.0908H19.3636C15.0237 52.0908 10.8616 53.8148 7.7928 56.8836C4.72402 59.9524 3 64.1146 3 68.4545V76.6363" stroke="#687759" stroke-width="5.10884" stroke-linecap="round" stroke-linejoin="round"/>
<path d="M35.7274 35.7273C44.7648 35.7273 52.091 28.401 52.091 19.3636C52.091 10.3262 44.7648 3 35.7274 3C26.69 3 19.3638 10.3262 19.3638 19.3636C19.3638 28.401 26.69 35.7273 35.7274 35.7273Z" stroke="#687759" stroke-width="5.10884" stroke-linecap="round" stroke-linejoin="round"/>
<path d="M93 76.6364V68.4546C92.9973 64.829 91.7906 61.3069 89.5692 58.4414C87.3479 55.5759 84.2378 53.5292 80.7273 52.6228" stroke="#687759" stroke-width="5.10884" stroke-linecap="round" stroke-linejoin="round"/>
<path d="M64.3635 3.53174C67.8834 4.43297 71.0032 6.48006 73.2311 9.35028C75.4591 12.2205 76.6683 15.7506 76.6683 19.384C76.6683 23.0174 75.4591 26.5475 73.2311 29.4177C71.0032 32.288 67.8834 34.3351 64.3635 35.2363" stroke="#687759" stroke-width="5.10884" stroke-linecap="round" stroke-linejoin="round"/>
</svg>
