<svg width="95" height="95" viewBox="0 0 95 95" fill="none"
    xmlns="http://www.w3.org/2000/svg">
    <path d="M27.3676 2.89575H12.3676C9.71545 2.89575 7.17191 3.94932 5.29655 5.82468C3.42118 7.70005 2.36761 10.2436 2.36761 12.8958V27.8958M92.3676 27.8958V12.8958C92.3676 10.2436 91.314 7.70005 89.4387 5.82468C87.5633 3.94932 85.0198 2.89575 82.3676 2.89575H67.3676M67.3676 92.8958H82.3676C85.0198 92.8958 87.5633 91.8422 89.4387 89.9668C91.314 88.0915 92.3676 85.5479 92.3676 82.8958V67.8958M2.36761 67.8958V82.8958C2.36761 85.5479 3.42118 88.0915 5.29655 89.9668C7.17191 91.8422 9.71545 92.8958 12.3676 92.8958H27.3676" stroke="#687759" stroke-width="4" stroke-linecap="round" stroke-linejoin="round"/>
</svg>
