<svg width="69" height="92" viewBox="0 0 69 92" fill="none" xmlns="http://www.w3.org/2000/svg">
<path d="M17.2821 58.1648V57.0705L16.3606 56.4805C8.26966 51.2998 2.88477 42.2409 2.88477 31.8914C2.88477 15.0946 16.7898 1.62573 34.4785 1.62573C52.1673 1.62573 66.0723 15.0946 66.0723 31.8914C66.0723 41.753 60.7079 50.8522 52.535 56.5215L51.6749 57.1181V58.1648V68.7664C51.6749 70.0209 50.5971 71.3757 48.8758 71.3757H20.0812C18.3599 71.3757 17.2821 70.0209 17.2821 68.7664V58.1648ZM24.8803 89.8132C23.159 89.8132 22.0812 88.4584 22.0812 87.2039V84.5945H46.8758V87.2039C46.8758 88.4584 45.798 89.8132 44.0767 89.8132H24.8803Z" stroke="#687759" stroke-width="4"/>
</svg>
