<svg width="96" height="96" viewBox="0 0 96 96" fill="none" xmlns="http://www.w3.org/2000/svg">
<path d="M47.8203 60.2843C54.598 60.3511 60.1466 54.9109 60.2134 48.1332C60.2802 41.3555 54.8399 35.8069 48.0622 35.7401C41.2845 35.6733 35.7359 41.1136 35.6692 47.8913C35.6024 54.669 41.0426 60.2176 47.8203 60.2843Z" stroke="#687759" stroke-width="5" stroke-linecap="round" stroke-linejoin="round"/>
<path d="M78.0916 60.5827C77.5349 61.8111 77.359 63.1782 77.5865 64.5076C77.814 65.837 78.4346 67.0677 79.3682 68.0411L79.6112 68.2889C80.3644 69.0563 80.9589 69.9645 81.3609 70.9618C81.7628 71.9591 81.9642 73.0258 81.9536 74.1009C81.943 75.1761 81.7206 76.2386 81.2991 77.2278C80.8776 78.2169 80.2653 79.1133 79.4971 79.8656C78.7298 80.6188 77.8215 81.2134 76.8242 81.6153C75.827 82.0173 74.7602 82.2187 73.6851 82.2081C72.6099 82.1975 71.5474 81.9751 70.5582 81.5536C69.5691 81.1321 68.6727 80.5197 67.9204 79.7516L67.6773 79.5037C66.7225 78.5511 65.5043 77.9064 64.1796 77.6528C62.855 77.3991 61.4847 77.548 60.2456 78.0804C59.0305 78.587 57.9902 79.4379 57.2525 80.5282C56.5149 81.6185 56.1122 82.9008 56.094 84.217L56.0871 84.9125C56.0657 87.0823 55.1833 89.1548 53.6338 90.674C52.0844 92.1932 49.9949 93.0346 47.8251 93.0133C45.6552 92.9919 43.5827 92.1094 42.0635 90.56C40.5444 89.0105 39.7029 86.921 39.7243 84.7512L39.7279 84.383C39.7096 83.0287 39.2842 81.7112 38.5072 80.6019C37.7302 79.4925 36.6373 78.6425 35.3708 78.1625C34.1424 77.6058 32.7753 77.4299 31.4459 77.6574C30.1165 77.885 28.8858 78.5055 27.9124 79.4391L27.6646 79.6821C26.8972 80.4353 25.989 81.0299 24.9917 81.4318C23.9944 81.8337 22.9277 82.0352 21.8526 82.0246C20.7774 82.014 19.7149 81.7915 18.7257 81.37C17.7366 80.9485 16.8402 80.3362 16.0878 79.568C15.3347 78.8007 14.7401 77.8924 14.3382 76.8951C13.9362 75.8979 13.7348 74.8312 13.7454 73.756C13.756 72.6808 13.9784 71.6183 14.3999 70.6292C14.8214 69.64 15.4338 68.7436 16.2019 67.9913L16.4498 67.7483C17.4024 66.7935 18.0471 65.5752 18.3007 64.2506C18.5544 62.9259 18.4055 61.5557 17.8731 60.3165C17.3665 59.1015 16.5156 58.0611 15.4253 57.3235C14.335 56.5858 13.0527 56.1831 11.7365 56.1649L11.041 56.158C8.87119 56.1367 6.79871 55.2542 5.27951 53.7047C3.76032 52.1553 2.91886 50.0658 2.94025 47.896C2.96163 45.7261 3.84411 43.6537 5.39354 42.1345C6.94298 40.6153 9.03245 39.7738 11.2023 39.7952L11.5705 39.7988C12.9248 39.7805 14.2423 39.3552 15.3516 38.5781C16.461 37.8011 17.3109 36.7083 17.791 35.4417C18.3477 34.2133 18.5236 32.8462 18.2961 31.5168C18.0685 30.1875 17.448 28.9567 16.5144 27.9833L16.2714 27.7355C15.5182 26.9682 14.9236 26.0599 14.5217 25.0626C14.1198 24.0654 13.9183 22.9986 13.9289 21.9235C13.9395 20.8483 14.1619 19.7858 14.5835 18.7966C15.005 17.8075 15.6173 16.9111 16.3855 16.1588C17.1528 15.4056 18.0611 14.811 19.0583 14.4091C20.0556 14.0072 21.1223 13.8057 22.1975 13.8163C23.2727 13.8269 24.3352 14.0493 25.3243 14.4708C26.3135 14.8924 27.2099 15.5047 27.9622 16.2729L28.2052 16.5207C29.16 17.4733 30.3783 18.118 31.7029 18.3717C33.0276 18.6254 34.3978 18.4764 35.637 17.944L35.9643 17.9473C37.1793 17.4406 38.2196 16.5898 38.9573 15.4995C39.6949 14.4091 40.0976 13.1269 40.1159 11.8106L40.1227 11.1152C40.1441 8.94534 41.0266 6.87286 42.576 5.35367C44.1254 3.83447 46.2149 2.99301 48.3848 3.0144C50.5546 3.03578 52.6271 3.91826 54.1463 5.4677C55.6655 7.01713 56.5069 9.1066 56.4855 11.2765L56.4819 11.6446C56.4742 12.961 56.8516 14.2509 57.5676 15.3556C58.2836 16.4602 59.307 17.3314 60.5118 17.8619C61.7402 18.4186 63.1073 18.5945 64.4366 18.367C65.766 18.1395 66.9968 17.5189 67.9701 16.5853L68.218 16.3423C68.9853 15.5891 69.8936 14.9946 70.8909 14.5926C71.8881 14.1907 72.9549 13.9893 74.03 13.9999C75.1052 14.0105 76.1677 14.2329 77.1569 14.6544C78.146 15.0759 79.0424 15.6882 79.7947 16.4564C80.5479 17.2237 81.1425 18.132 81.5444 19.1293C81.9463 20.1265 82.1478 21.1933 82.1372 22.2684C82.1266 23.3436 81.9042 24.4061 81.4827 25.3953C81.0611 26.3844 80.4488 27.2808 79.6806 28.0331L79.4328 28.2761C78.4802 29.2309 77.8355 30.4492 77.5818 31.7739C77.3281 33.0985 77.4771 34.4687 78.0095 35.7079L78.0062 36.0352C78.5129 37.2502 79.3637 38.2906 80.454 39.0282C81.5444 39.7658 82.8266 40.1686 84.1429 40.1868L84.8383 40.1936C87.0082 40.215 89.0806 41.0975 90.5998 42.6469C92.119 44.1964 92.9605 46.2858 92.9391 48.4557C92.9177 50.6255 92.0352 52.698 90.4858 54.2172C88.9364 55.7364 86.8469 56.5779 84.677 56.5565L84.3089 56.5528C82.9925 56.5451 81.7026 56.9225 80.5979 57.6385C79.4933 58.3545 78.6221 59.3779 78.0916 60.5827Z" stroke="#687759" stroke-width="5" stroke-linecap="round" stroke-linejoin="round"/>
</svg>
