<svg width="95" height="95" viewBox="0 0 95 95" fill="none" xmlns="http://www.w3.org/2000/svg">
<path d="M42.7558 12.0007H11.4457C9.07318 12.0007 6.7978 12.9432 5.12014 14.6209C3.44249 16.2985 2.5 18.5739 2.5 20.9465V83.5666C2.5 85.9392 3.44249 88.2145 5.12014 89.8922C6.7978 91.5699 9.07318 92.5123 11.4457 92.5123H74.0659C76.4384 92.5123 78.7138 91.5699 80.3915 89.8922C82.0691 88.2145 83.0116 85.9392 83.0116 83.5666V52.2565" stroke="#687759" stroke-width="4" stroke-linecap="round" stroke-linejoin="round"/>
<path d="M76.3023 5.29129C78.0817 3.51187 80.4951 2.51221 83.0116 2.51221C85.5281 2.51221 87.9415 3.51187 89.7209 5.29129C91.5003 7.07071 92.5 9.48411 92.5 12.0006C92.5 14.5171 91.5003 16.9305 89.7209 18.7099L47.2287 61.2021L29.3372 65.675L33.8101 47.7835L76.3023 5.29129Z" stroke="#687759" stroke-width="4" stroke-linecap="round" stroke-linejoin="round"/>
</svg>
