<svg width="95" height="77" viewBox="0 0 95 77" fill="none" xmlns="http://www.w3.org/2000/svg">
<path d="M92.9265 38.3958H2.92645" stroke="#687759" stroke-width="4" stroke-linecap="round" stroke-linejoin="round"/>
<path d="M18.4515 7.39075L2.92645 38.3958V65.3958C2.92645 67.7827 3.87466 70.0719 5.56249 71.7597C7.25032 73.4475 9.5395 74.3958 11.9265 74.3958H83.9265C86.3134 74.3958 88.6026 73.4475 90.2904 71.7597C91.9782 70.0719 92.9265 67.7827 92.9265 65.3958V38.3958L77.4014 7.39075C76.6564 5.8913 75.5077 4.62942 74.0848 3.74701C72.6618 2.8646 71.0208 2.39664 69.3465 2.39575H26.5065C24.8321 2.39664 23.1911 2.8646 21.7682 3.74701C20.3452 4.62942 19.1965 5.8913 18.4515 7.39075Z" stroke="#687759" stroke-width="4" stroke-linecap="round" stroke-linejoin="round"/>
<path d="M20.9265 56.3958H20.9715" stroke="#687759" stroke-width="4" stroke-linecap="round" stroke-linejoin="round"/>
<path d="M38.9265 56.3958H38.9715" stroke="#687759" stroke-width="4" stroke-linecap="round" stroke-linejoin="round"/>
</svg>
