<svg width="44" height="34" viewBox="0 0 44 34" fill="none" xmlns="http://www.w3.org/2000/svg">
<path d="M7.5 26.0075L7.50625 25.9992" stroke="#687759" stroke-width="1.5" stroke-linecap="round" stroke-linejoin="round"/>
<path d="M4.375 28.4V17.6C4.375 17.2686 4.64363 17 4.975 17H10.025C10.3564 17 10.625 17.2686 10.625 17.6V28.4C10.625 28.7314 10.3564 29 10.025 29H4.975C4.64363 29 4.375 28.7314 4.375 28.4Z" stroke="#687759" stroke-width="2"/>
<path d="M31 27.3416L31.0108 27.3323" stroke="#687759" stroke-width="1.5" stroke-linecap="round" stroke-linejoin="round"/>
<path d="M25.5835 30.0666V17.9333C25.5835 17.6019 25.8521 17.3333 26.1835 17.3333H35.8168C36.1482 17.3333 36.4168 17.6019 36.4168 17.9333V30.0666C36.4168 30.398 36.1482 30.6666 35.8168 30.6666H26.1835C25.8521 30.6666 25.5835 30.398 25.5835 30.0666Z" stroke="#687759" stroke-width="2"/>
<path d="M14.0415 25.375L26.9582 25.375" stroke="#687759" stroke-width="1.5" stroke-linecap="round" stroke-linejoin="round"/>
<path d="M7.5835 19.9417V4.225C7.5835 3.89363 7.85213 3.625 8.1835 3.625H32.8168C33.1482 3.625 33.4168 3.89363 33.4168 4.225V19.9417C33.4168 20.273 33.1482 20.5417 32.8168 20.5417H8.1835C7.85213 20.5417 7.5835 20.273 7.5835 19.9417Z" stroke="#687759" stroke-width="2"/>
</svg>
