<svg width="47" height="36" viewBox="0 0 47 36" fill="none" xmlns="http://www.w3.org/2000/svg">
<path d="M7.5 30.0075L7.50625 29.9992" stroke="#687759" stroke-width="2" stroke-linecap="round" stroke-linejoin="round"/>
<path d="M4.375 32.4V21.6C4.375 21.2686 4.64363 21 4.975 21H10.025C10.3564 21 10.625 21.2686 10.625 21.6V32.4C10.625 32.7314 10.3564 33 10.025 33H4.975C4.64363 33 4.375 32.7314 4.375 32.4Z" stroke="#687759" stroke-width="2"/>
<path d="M34 29.3416L34.0108 29.3323" stroke="#687759" stroke-width="2" stroke-linecap="round" stroke-linejoin="round"/>
<path d="M28.5835 32.0666V19.9333C28.5835 19.6019 28.8521 19.3333 29.1835 19.3333H38.8168C39.1482 19.3333 39.4168 19.6019 39.4168 19.9333V32.0666C39.4168 32.398 39.1482 32.6666 38.8168 32.6666H29.1835C28.8521 32.6666 28.5835 32.398 28.5835 32.0666Z" stroke="#687759" stroke-width="2"/>
<path d="M14.3911 25.875L27.3078 25.875" stroke="#687759" stroke-width="2" stroke-linecap="round" stroke-linejoin="round"/>
<path d="M7.93311 20.4417V4.725C7.93311 4.39363 8.20174 4.125 8.53311 4.125H33.1664C33.4978 4.125 33.7664 4.39363 33.7664 4.725V20.4417C33.7664 20.773 33.4978 21.0417 33.1664 21.0417H8.53311C8.20173 21.0417 7.93311 20.773 7.93311 20.4417Z" stroke="#687759" stroke-width="2"/>
</svg>
