<svg width="24" height="24" viewBox="0 0 24 24" fill="none" xmlns="http://www.w3.org/2000/svg">
<path d="M10.0503 10.6067L2.97923 17.6778C2.19818 18.4588 2.19818 19.7251 2.97923 20.5062V20.5062C3.76027 21.2872 5.0266 21.2872 5.80765 20.5062L12.8787 13.4351" stroke="#687759" stroke-width="1.5" stroke-linecap="round" stroke-linejoin="round"/>
<path d="M17.193 13.7994L21.0713 17.6777C21.8523 18.4587 21.8523 19.7251 21.0713 20.5061V20.5061C20.2902 21.2872 19.0239 21.2872 18.2428 20.5061L12.0344 14.2977" stroke="#687759" stroke-width="1.5" stroke-linecap="round" stroke-linejoin="round"/>
<path d="M6.73242 5.90375L4.6111 6.61086L2.48978 3.07533L3.904 1.66111L7.43953 3.78243L6.73242 5.90375ZM6.73242 5.90375L9.56265 8.73398" stroke="#687759" stroke-width="1.5" stroke-linecap="round" stroke-linejoin="round"/>
<path d="M10.0503 10.6067C9.2065 8.45365 9.37147 5.62867 11.111 3.88916C12.8505 2.14964 16.0607 1.76784 17.8285 2.8285L14.7878 5.86917L14.5052 8.98021L17.6162 8.6976L20.6569 5.65692C21.7176 7.42469 21.3358 10.6349 19.5963 12.3744C17.8567 14.114 15.0318 14.2789 12.8788 13.4351" stroke="#687759" stroke-width="1.5" stroke-linecap="round" stroke-linejoin="round"/>
</svg>
