<svg width="900" height="600" viewBox="0 0 900 600" fill="none"
    xmlns="http://www.w3.org/2000/svg">
    <path fill="transparent" d="M0 0h900v600H0z"/>
    <rect x="110" y="133" width="248" height="290" rx="30" fill="#0A0B09" stroke="#333" stroke-width="4" stroke-linecap="round" stroke-linejoin="round"/>
    <path d="M143 173a8 8 0 1 0 0-16 8 8 0 0 0 0 16zm22 0a8 8 0 1 0 0-16 8 8 0 0 0 0 16zm22 0a8 8 0 1 0 0-16 8 8 0 0 0 0 16z" fill="#333"/>
    <rect x="135" y="220" width="192" height="6" rx="3" fill="#333"/>
    <rect x="135" y="312" width="192" height="6" rx="3" fill="#333"/>
    <path d="M265 241c9.941 0 18-8.059 18-18s-8.059-18-18-18-18 8.059-18 18 8.059 18 18 18zm0 92c9.941 0 18-8.059 18-18s-8.059-18-18-18-18 8.059-18 18 8.059 18 18 18zm-82-82c-9.941 0-18 8.059-18 18s8.059 18 18 18 18-8.059 18-18-8.059-18-18-18zm0 92c-9.941 0-18 8.059-18 18s8.059 18 18 18 18-8.059 18-18-8.059-18-18-18z" fill="#333"/>
    <rect x="542" y="114" width="248" height="290" rx="30" fill="#0A0B09" stroke="#333" stroke-width="4" stroke-linecap="round" stroke-linejoin="round"/>
    <path d="M575 154a8 8 0 1 0 0-16 8 8 0 0 0 0 16zm22 0a8 8 0 1 0 0-16 8 8 0 0 0 0 16zm22 0a8 8 0 1 0 0-16 8 8 0 0 0 0 16z" fill="#333"/>
    <rect x="567" y="201" width="192" height="6" rx="3" fill="#333"/>
    <rect x="567" y="293" width="192" height="6" rx="3" fill="#333"/>
    <path d="M704 222c9.941 0 18-8.059 18-18s-8.059-18-18-18-18 8.059-18 18 8.059 18 18 18zm0 92c9.941 0 18-8.059 18-18s-8.059-18-18-18-18 8.059-18 18 8.059 18 18 18zm-82-82c-9.941 0-18 8.059-18 18s8.059 18 18 18 18-8.059 18-18-8.059-18-18-18zm0 92c-9.941 0-18 8.059-18 18s8.059 18 18 18 18-8.059 18-18-8.059-18-18-18z" fill="#333"/>
    <rect x="303" y="189" width="248" height="290" rx="30" fill="#0A0B09" stroke="#333" stroke-width="4" stroke-linecap="round" stroke-linejoin="round"/>
    <path d="M336 229a8 8 0 1 0 0-16 8 8 0 0 0 0 16zm22 0a8 8 0 1 0 0-16 8 8 0 0 0 0 16zm22 0a8 8 0 1 0 0-16 8 8 0 0 0 0 16z" fill="#333"/>
    <circle cx="375" cy="294" r="35" fill="#60967b"/>
    <path d="m477.5 229 55.859 96.75H421.641L477.5 229z" fill="#333"/>
    <path fill="#60967b" d="M413 337h114v103H413zm-15 10h-20v83h20zm-32 0h-20v83h20z"/>
    <path d="M418.83 520.579c-.715 5.858-6.292 8.909-16.027 11.845-7.321 2.206-13.96 4.312-22.577 3.361-6.031-.664-11.423-2.697-15.719-5.058-4.654-2.558-10.751-5.154-10.417-10.355.459-7.145 15.184-19.044 34.844-17.526 21.597 1.67 30.597 12.007 29.896 17.733z" fill="url(#a)"/>
    <path d="M487.184 136.971c-11.793 8.796-30.51 3.663-30.51 3.663s.417-19.391 12.218-28.179c11.793-8.796 30.501-3.671 30.501-3.671s-.416 19.392-12.209 28.187z" fill="url(#b)"/>
    <path d="M190.317 93.049c11.211 12.975 33.802 11.839 33.802 11.839s4.401-22.175-6.821-35.143c-11.211-12.974-33.79-11.845-33.79-11.845s-4.401 22.174 6.809 35.149z" fill="url(#c)"/>
    <circle r="9.673" transform="matrix(-1 0 0 1 498.673 523.673)" fill="#333"/>
    <circle r="10.634" transform="matrix(-1 0 0 1 621.634 469.634)" fill="#333"/>
    <circle r="10.617" transform="scale(1 -1) rotate(-75 -175.258 -405.726)" fill="#333"/>
    <circle r="14.124" transform="matrix(-1 0 0 1 384.124 95.124)" fill="#333"/>
    <circle r="15.605" transform="matrix(0 1 1 0 149.606 482.606)" fill="#333"/>
    <path d="M692.41 440h.285c1.683 23.847 19.417 24.214 19.417 24.214s-19.556.382-19.556 27.936c0-27.554-19.556-27.936-19.556-27.936s17.727-.367 19.41-24.214z" fill="#333"/>
</svg>